<?xml version="1.0" standalone="no"?>
<!DOCTYPE svg PUBLIC "-//W3C//DTD SVG 20010904//EN"
 "http://www.w3.org/TR/2001/REC-SVG-20010904/DTD/svg10.dtd">
<svg version="1.0" xmlns="http://www.w3.org/2000/svg"
 width="1024.000000pt" height="1024.000000pt" viewBox="0 0 1024.000000 1024.000000"
 preserveAspectRatio="xMidYMid meet">
<metadata>
Created by potrace 1.14, written by Peter Selinger 2001-2017
</metadata>
<g transform="translate(0.000000,1024.000000) scale(0.100000,-0.100000)"
fill="#000000" stroke="none">
<path d="M5127 8864 c-4 -3 -191 -16 -263 -19 -39 -1 -76 -5 -82 -9 -7 -4 -16
-5 -21 -2 -5 4 -21 2 -35 -4 -18 -7 -26 -6 -26 1 0 8 -4 8 -12 2 -7 -6 -25 -9
-40 -8 -15 1 -25 -2 -23 -6 3 -4 -24 -11 -60 -14 -36 -4 -65 -10 -65 -14 0 -6
-29 -11 -87 -14 -18 -1 -33 -6 -33 -11 0 -4 -7 -6 -15 -3 -8 4 -40 -3 -72 -14
-32 -11 -71 -23 -88 -26 -16 -3 -35 -9 -40 -13 -6 -5 -42 -16 -80 -26 -39 -9
-80 -23 -93 -31 -20 -13 -41 -18 -90 -22 -7 0 -11 -5 -8 -10 4 -5 -4 -7 -16
-3 -14 3 -19 1 -14 -6 4 -7 2 -10 -7 -6 -8 3 -20 -2 -27 -11 -7 -8 -16 -15
-20 -15 -4 0 -25 -8 -46 -17 -22 -9 -45 -16 -53 -14 -7 1 -22 -7 -32 -18 -12
-12 -26 -18 -36 -14 -10 4 -14 2 -10 -4 7 -11 -42 -36 -75 -38 -22 -2 -37 -15
-17 -15 8 -1 -2 -8 -21 -17 -19 -8 -46 -15 -60 -14 -18 0 -21 -2 -11 -8 11 -7
9 -12 -10 -22 -13 -7 -30 -12 -38 -10 -7 1 -10 -2 -6 -8 7 -12 -8 -15 -19 -4
-14 15 -33 10 -32 -8 1 -10 -3 -19 -9 -20 -5 -1 -16 -9 -23 -18 -10 -12 -12
-12 -6 -1 5 10 1 9 -14 -3 -11 -11 -25 -16 -31 -12 -7 3 -8 0 -5 -9 5 -13 -28
-41 -38 -31 -2 2 -17 -7 -32 -20 -16 -14 -33 -22 -38 -19 -4 3 -7 0 -6 -7 2
-7 -4 -13 -12 -14 -20 0 -63 -25 -56 -32 8 -8 -14 -34 -24 -28 -4 3 -22 -8
-39 -24 -17 -16 -31 -27 -31 -24 0 2 -13 -10 -29 -28 -16 -17 -35 -29 -42 -27
-7 2 -23 -9 -34 -26 -11 -17 -26 -31 -33 -31 -7 0 -12 -4 -13 -10 -1 -14 -20
-35 -31 -35 -5 0 -6 6 -2 13 4 6 -2 3 -14 -7 -24 -21 -29 -31 -9 -20 7 5 6 1
-3 -10 -9 -12 -16 -14 -18 -6 -3 7 -11 2 -20 -12 -9 -13 -16 -27 -14 -31 1 -5
-2 -6 -8 -2 -5 3 -18 1 -27 -5 -17 -11 -17 -11 1 -6 16 6 17 4 6 -9 -9 -11
-17 -12 -34 -3 -20 11 -20 10 -3 -9 16 -18 16 -22 2 -33 -12 -10 -18 -10 -32
1 -11 10 -14 10 -9 2 4 -8 2 -13 -4 -13 -6 0 -8 -5 -4 -12 5 -7 2 -9 -8 -5
-10 3 -24 -3 -35 -16 -17 -21 -17 -21 0 -7 17 12 18 12 15 -6 -4 -23 -28 -43
-44 -37 -6 2 -14 -3 -18 -12 -3 -9 -2 -14 3 -11 5 4 4 -5 -2 -18 -7 -14 -14
-24 -17 -24 -14 3 -40 -16 -40 -27 0 -7 -13 -26 -30 -42 -16 -15 -30 -32 -30
-36 0 -5 -13 -19 -28 -32 -16 -13 -37 -42 -47 -64 -14 -32 -21 -39 -32 -30
-10 9 -13 7 -15 -7 0 -11 -2 -24 -2 -30 -1 -6 -18 -32 -39 -57 -20 -25 -37
-50 -37 -56 0 -6 -6 -10 -12 -9 -7 2 -12 -3 -10 -9 1 -7 -2 -13 -8 -13 -5 0
-16 -13 -25 -30 -9 -16 -13 -30 -10 -30 3 0 -2 -12 -11 -26 -11 -16 -20 -21
-24 -14 -5 7 -9 4 -13 -10 -4 -14 -10 -19 -18 -14 -8 4 -10 3 -5 -5 4 -6 2
-18 -4 -26 -6 -8 -9 -18 -6 -24 9 -14 -5 -42 -17 -34 -5 3 -7 1 -3 -5 3 -5 -6
-25 -21 -43 -16 -18 -27 -34 -25 -36 7 -9 1 -23 -8 -18 -6 3 -10 11 -10 16 0
6 5 7 12 3 7 -5 8 -3 3 5 -13 22 -28 -4 -16 -28 9 -17 8 -24 -9 -41 -11 -11
-19 -22 -17 -24 5 -8 -36 -95 -44 -91 -7 5 -25 -33 -21 -47 1 -3 -10 -30 -24
-60 -14 -29 -22 -45 -20 -35 4 10 2 15 -4 12 -6 -3 -7 -17 -4 -30 4 -16 -1
-30 -15 -44 -13 -13 -18 -27 -14 -37 4 -12 3 -15 -5 -10 -11 7 -17 -18 -13
-51 1 -7 -3 -13 -8 -13 -6 0 -8 -6 -5 -14 3 -7 -2 -21 -11 -30 -9 -9 -13 -21
-9 -27 5 -8 3 -9 -6 -4 -9 6 -10 2 -5 -15 5 -16 4 -20 -5 -15 -9 5 -10 2 -5
-14 3 -12 2 -21 -4 -21 -5 0 -9 -8 -9 -17 1 -10 -2 -31 -6 -47 -6 -24 -9 -27
-17 -15 -8 10 -9 8 -4 -9 4 -12 0 -36 -9 -54 -9 -17 -14 -39 -11 -48 3 -10 -3
-28 -14 -41 -14 -17 -17 -29 -10 -41 7 -12 6 -18 -2 -18 -6 0 -9 -7 -5 -15 3
-8 1 -15 -4 -15 -5 0 -9 -8 -8 -17 0 -10 -3 -38 -6 -63 -4 -25 -9 -69 -13 -97
-3 -29 -9 -53 -12 -53 -4 0 -6 -16 -5 -35 2 -19 0 -35 -4 -35 -4 0 -8 -17 -10
-37 -1 -20 -8 -43 -15 -52 -10 -12 -9 -13 1 -7 11 7 12 -7 5 -75 -12 -128 -6
-721 9 -789 2 -8 7 -21 11 -27 5 -8 3 -13 -5 -13 -10 0 -10 -2 1 -9 7 -5 10
-14 7 -20 -4 -6 -4 -17 1 -23 8 -14 9 -21 16 -78 2 -19 7 -42 10 -50 12 -33
15 -75 6 -98 -9 -23 -8 -24 7 -11 16 13 17 11 12 -28 -4 -24 -2 -43 2 -43 11
0 51 -130 44 -141 -3 -5 2 -19 10 -31 8 -13 21 -50 29 -83 8 -33 22 -75 31
-92 9 -18 17 -41 19 -52 2 -11 6 -24 10 -27 4 -4 7 -18 7 -31 0 -13 7 -26 16
-30 8 -3 13 -12 10 -19 -3 -8 -2 -14 3 -14 5 0 13 -12 19 -27 6 -16 13 -37 18
-48 4 -11 8 -24 9 -30 1 -5 3 -13 5 -17 1 -5 3 -14 4 -20 1 -7 7 -12 13 -11
10 2 56 -88 57 -112 1 -5 4 -14 9 -20 27 -36 58 -89 63 -110 3 -14 10 -25 16
-25 5 0 6 -5 3 -10 -3 -6 -2 -10 4 -10 12 0 46 -58 46 -77 0 -7 3 -12 7 -10
10 3 37 -35 38 -53 0 -9 8 -23 18 -32 30 -29 38 -42 34 -60 -2 -10 4 -25 12
-34 9 -8 16 -11 16 -5 0 5 -4 13 -10 16 -5 3 -10 12 -10 18 0 7 9 1 20 -13 11
-14 17 -32 14 -40 -3 -8 -2 -11 2 -7 9 9 44 -22 44 -40 0 -7 4 -13 9 -13 5 0
8 -10 7 -23 -2 -14 2 -24 10 -24 7 0 10 7 6 16 -3 9 -3 14 -1 11 2 -3 15 -18
29 -34 14 -16 20 -26 13 -22 -7 4 -6 -5 3 -24 9 -16 26 -33 39 -36 16 -4 22
-12 20 -24 -3 -14 1 -17 12 -13 11 4 14 2 9 -5 -4 -8 -1 -12 10 -12 10 0 14
-3 11 -7 -4 -3 2 -12 13 -20 11 -8 20 -21 20 -29 0 -8 4 -14 9 -14 5 0 12 -7
15 -16 5 -14 4 -15 -9 -4 -10 8 -15 9 -15 1 0 -10 4 -12 25 -11 17 1 65 -33
65 -46 0 -8 5 -12 10 -9 6 3 10 -2 10 -11 0 -10 3 -15 6 -12 3 4 21 -11 41
-33 19 -21 39 -36 44 -33 5 3 6 -2 3 -11 -5 -11 -2 -14 10 -9 10 4 19 -2 27
-19 6 -14 21 -28 33 -31 12 -3 39 -28 60 -56 21 -28 43 -53 50 -57 6 -3 2 3
-8 15 -11 12 -17 25 -14 28 8 7 49 -47 43 -56 -3 -5 -1 -11 5 -15 6 -4 7 -12
3 -18 -3 -7 4 -3 17 8 21 18 23 18 17 2 -4 -11 -3 -16 3 -12 12 7 76 -44 73
-56 -2 -5 3 -6 11 -3 7 3 21 -2 29 -11 9 -9 20 -17 24 -18 4 -1 7 -5 6 -9 -1
-3 11 -9 27 -13 16 -4 33 -11 36 -17 4 -6 3 -8 -3 -5 -5 3 -10 0 -10 -8 0 -8
4 -12 8 -9 9 5 79 -22 79 -31 0 -3 -6 -3 -12 1 -8 4 -10 3 -5 -2 5 -5 17 -10
28 -10 34 -2 36 -4 62 -30 15 -15 31 -23 38 -18 7 4 9 3 6 -3 -7 -11 41 -38
62 -34 7 1 10 -2 6 -8 -3 -6 0 -9 8 -5 8 3 18 1 22 -5 3 -6 1 -11 -6 -11 -7 0
-5 -6 6 -14 10 -7 26 -11 36 -9 10 3 31 -4 48 -16 16 -12 35 -21 43 -21 16 -1
49 -25 49 -37 1 -4 3 -10 6 -13 4 -3 3 1 -1 8 -9 14 -2 15 22 2 9 -5 45 -21
79 -36 34 -15 60 -30 58 -34 -2 -3 8 -6 23 -7 47 -1 53 -3 47 -13 -3 -5 14
-14 37 -20 73 -19 112 -32 134 -47 11 -7 23 -10 26 -7 4 3 17 0 30 -7 12 -7
26 -12 31 -11 4 1 23 -4 41 -12 19 -8 37 -12 40 -8 3 3 6 0 6 -7 0 -7 7 -11
15 -8 8 4 26 0 41 -8 15 -7 33 -11 40 -8 8 3 25 -2 39 -11 27 -18 39 -21 31
-7 -4 5 3 7 15 4 16 -5 18 -8 7 -15 -10 -7 -9 -8 5 -4 9 3 30 1 45 -5 15 -6
47 -12 72 -14 41 -4 150 -19 210 -31 14 -2 61 -7 105 -10 44 -3 105 -9 135
-14 86 -13 515 -3 630 14 54 9 133 17 155 17 11 0 35 4 54 11 19 6 52 12 73
13 21 1 41 5 45 9 3 3 21 6 39 6 18 0 55 9 82 19 38 15 52 17 62 8 10 -9 11
-9 6 0 -8 15 19 22 73 19 23 -2 38 0 31 4 -9 5 -9 9 -1 14 6 4 16 4 21 1 6 -4
16 -2 23 3 29 24 174 61 162 42 -3 -5 -1 -11 4 -15 6 -3 8 5 5 18 -3 22 2 26
54 43 31 10 63 17 71 15 8 -1 10 2 5 10 -5 9 -2 10 9 6 9 -3 19 -2 22 3 4 6
18 10 33 11 15 0 21 3 13 6 -16 7 40 33 71 33 10 0 17 4 13 9 -3 5 12 15 32
21 21 7 44 17 51 23 6 5 12 6 12 2 0 -5 8 -1 18 7 23 20 114 69 107 58 -3 -5
0 -12 6 -16 8 -4 9 -3 5 4 -4 7 -2 12 4 12 6 0 8 5 5 10 -3 6 -1 11 4 11 6 1
15 2 21 3 5 0 18 8 28 17 10 8 24 13 31 11 8 -3 11 0 7 6 -7 12 26 26 64 27
14 0 25 5 26 10 2 22 17 45 25 39 5 -3 12 2 15 10 3 9 11 13 17 9 5 -3 15 0
21 8 19 25 73 59 81 51 5 -4 6 -2 2 3 -7 14 101 88 119 81 9 -3 11 0 7 11 -4
11 -2 14 5 9 6 -3 16 2 22 13 5 11 26 28 45 37 19 9 33 19 30 24 -5 8 56 56
68 52 5 -1 6 2 3 7 -9 14 18 31 42 26 20 -3 21 -1 11 17 -6 12 -7 18 -1 14 5
-3 13 1 16 10 3 9 11 12 18 8 7 -4 10 -3 5 1 -4 5 0 17 10 27 18 20 38 25 27
6 -4 -7 2 -4 14 6 25 21 31 36 7 16 -8 -7 -15 -8 -15 -3 0 5 9 17 21 26 17 15
24 16 37 6 14 -11 15 -11 5 1 -15 17 -17 34 -3 25 6 -3 10 -2 10 3 0 5 16 27
35 48 28 31 35 34 35 18 0 -15 4 -13 15 10 9 16 13 31 10 34 -8 8 16 32 26 26
5 -3 8 -2 7 3 -4 12 118 153 126 146 3 -3 8 2 12 11 3 9 10 14 15 11 4 -3 6 3
4 12 -1 10 6 29 16 42 11 14 19 18 19 10 1 -9 4 -8 11 4 9 15 13 16 27 5 15
-11 14 -10 0 8 -10 11 -18 25 -18 30 0 5 5 2 10 -6 6 -9 10 -10 10 -3 0 7 10
22 23 33 20 19 20 21 2 14 -18 -7 -19 -6 -6 9 8 10 16 15 19 13 5 -6 42 38 42
51 0 4 -5 1 -10 -7 -6 -10 -10 -11 -10 -3 0 7 16 30 35 51 19 22 32 42 28 46
-9 9 11 8 23 -1 5 -5 6 -4 2 2 -5 5 -8 16 -8 25 0 13 2 13 11 0 9 -12 10 -10
6 8 -5 19 -3 21 9 11 12 -10 13 -9 9 4 -4 8 -1 18 4 22 6 3 9 10 6 15 -8 13
21 66 40 74 9 3 14 10 11 15 -9 14 15 61 27 54 6 -3 7 -1 3 5 -8 14 14 62 29
62 7 0 19 8 26 18 13 16 13 16 -5 2 -12 -9 -17 -10 -12 -2 4 7 9 22 12 35 7
38 50 118 59 110 4 -5 5 -3 2 3 -8 14 17 79 34 89 5 4 8 12 6 19 -3 7 3 30 14
52 10 21 18 47 19 56 0 9 5 20 10 23 6 3 10 19 10 34 0 15 3 31 7 35 7 7 10
17 20 69 3 15 8 27 12 27 3 0 7 14 8 32 1 17 8 35 14 39 7 4 9 14 6 22 -3 8 1
27 9 42 8 15 14 37 14 49 0 12 9 65 21 117 12 52 22 101 24 109 1 8 5 22 8 30
3 8 6 22 6 30 0 8 2 29 5 45 24 167 37 429 31 630 -9 274 -12 331 -21 375 -4
19 -9 42 -10 50 -13 95 -14 104 -5 85 5 -11 10 -14 10 -7 1 7 -5 25 -13 40
-15 30 -28 84 -28 120 0 12 -4 22 -10 22 -5 0 -6 10 -3 21 5 15 4 19 -4 15
-14 -9 -14 0 0 26 6 12 7 18 1 14 -12 -7 -30 55 -35 116 -1 9 -6 14 -11 11 -5
-4 -7 3 -4 15 4 12 3 22 -1 22 -4 0 -18 37 -31 83 -13 45 -27 88 -33 94 -5 7
-7 22 -4 33 3 11 1 18 -4 14 -5 -3 -9 2 -9 11 0 9 -7 26 -15 39 -9 13 -15 28
-13 32 1 5 -6 22 -17 38 -10 16 -19 44 -19 62 0 19 -3 29 -7 23 -10 -17 -20 6
-12 27 4 10 2 15 -4 11 -9 -6 -60 90 -55 106 1 4 -3 7 -9 7 -6 0 -8 7 -5 16 3
8 2 12 -4 9 -9 -5 -12 1 -9 21 0 4 -3 10 -8 13 -21 15 -32 48 -20 60 9 9 9 11
-3 7 -10 -4 -24 10 -44 45 -16 29 -23 48 -15 44 8 -5 3 4 -10 18 -14 15 -20
27 -15 27 5 0 2 6 -6 13 -24 20 -80 104 -73 111 3 3 1 6 -5 6 -7 0 -12 7 -12
16 0 9 -5 12 -12 8 -7 -5 -9 -2 -5 9 3 9 -3 27 -13 40 -11 13 -16 27 -12 31 3
4 -1 4 -10 1 -11 -4 -18 0 -22 13 -4 10 -16 29 -29 43 -12 13 -22 26 -23 29
-3 21 -18 39 -27 33 -7 -4 -8 0 -3 13 4 10 4 15 0 11 -8 -8 -34 11 -34 25 0 6
8 4 18 -3 15 -11 15 -11 4 1 -7 8 -18 15 -25 15 -7 0 -12 7 -12 15 -1 8 -6 14
-12 13 -6 -1 -19 8 -29 20 -19 21 -19 21 1 7 11 -8 1 5 -22 28 -33 34 -41 48
-37 70 3 19 2 23 -5 13 -10 -15 -43 -8 -39 8 2 5 -6 17 -17 26 -11 9 -15 14
-10 11 6 -2 11 4 11 14 0 13 -4 16 -12 9 -12 -10 -30 15 -25 35 1 5 -6 3 -15
-5 -12 -9 -15 -9 -10 -1 4 7 2 12 -8 12 -8 0 -18 9 -21 20 -4 11 -10 18 -15
15 -5 -3 -7 3 -5 15 4 23 -10 36 -21 19 -5 -8 -3 -9 6 -4 9 5 11 4 6 -3 -11
-18 -13 -16 -41 28 -14 23 -30 38 -35 35 -6 -3 -10 1 -10 9 0 8 -5 18 -12 22
-7 5 -9 2 -3 -7 4 -8 -4 0 -18 16 -14 17 -31 30 -39 30 -7 1 -12 7 -10 14 1 7
-2 10 -8 6 -5 -3 -13 1 -16 9 -3 9 -12 16 -19 16 -8 0 -17 5 -21 12 -4 6 -3 8
3 5 5 -3 10 0 10 8 0 8 -4 12 -8 10 -4 -3 -18 1 -32 8 -23 12 -24 14 -9 25 16
10 16 11 0 6 -11 -4 -18 -1 -18 7 0 11 -2 11 -8 1 -7 -9 -13 -8 -27 8 -18 20
-18 21 1 14 24 -9 16 -1 -15 16 -19 9 -22 9 -16 0 5 -7 -6 -5 -23 5 -17 10
-29 22 -26 27 3 5 2 8 -3 7 -20 -4 -31 3 -41 26 -6 14 -17 25 -24 25 -9 0 -8
-3 2 -10 8 -5 10 -10 4 -10 -6 0 -19 10 -28 23 -9 12 -14 16 -10 8 4 -7 -7 -3
-24 9 -17 13 -29 27 -26 31 3 5 -3 6 -12 2 -11 -4 -15 -2 -11 4 4 6 -4 14 -18
17 -14 4 -23 11 -20 16 3 5 -7 12 -22 16 -15 4 -36 15 -46 26 -10 10 -22 16
-28 13 -5 -4 -9 -1 -9 5 0 6 -4 9 -9 6 -5 -3 -12 1 -15 9 -3 8 -9 14 -13 13
-14 -2 -94 39 -93 48 0 5 -8 9 -18 10 -10 1 -30 13 -46 28 -16 17 -33 25 -42
22 -9 -4 -29 5 -46 19 -17 15 -37 24 -44 21 -8 -3 -14 -1 -14 5 0 6 -5 7 -11
4 -5 -4 -18 0 -27 8 -9 8 -26 17 -37 19 -11 2 -19 9 -18 14 1 6 -3 11 -10 12
-63 9 -110 24 -98 32 7 4 -1 7 -16 7 -33 0 -134 44 -127 55 3 4 -6 4 -20 -2
-14 -5 -26 -6 -26 -1 0 9 -70 31 -107 34 -13 1 -23 5 -23 9 0 4 -7 5 -15 2 -8
-3 -30 3 -48 15 -33 20 -67 31 -37 11 9 -6 10 -10 3 -10 -21 0 -43 12 -37 21
3 5 -1 6 -9 3 -8 -3 -47 2 -88 11 -41 8 -88 15 -106 15 -17 0 -35 5 -38 10 -4
6 -11 8 -16 5 -5 -4 -9 0 -9 7 0 9 -3 9 -10 -2 -7 -10 -10 -11 -10 -2 0 8 -11
11 -35 9 -19 -3 -35 0 -35 4 0 5 -5 9 -11 9 -5 0 -7 -6 -4 -12 4 -7 -1 -4 -9
6 -9 11 -16 15 -16 10 0 -9 -11 -10 -73 -5 -11 0 -15 6 -11 12 4 7 -1 7 -16
-1 -13 -7 -33 -9 -48 -4 -15 4 -76 9 -137 11 -60 2 -129 5 -153 6 -24 1 -44 2
-45 1z m-2752 -5954 c3 -5 1 -10 -4 -10 -6 0 -11 5 -11 10 0 6 2 10 4 10 3 0
8 -4 11 -10z m532 -525 c0 -8 -4 -12 -9 -9 -5 3 -6 10 -3 15 9 13 12 11 12 -6z"/>
<path d="M6378 8663 c7 -3 16 -2 19 1 4 3 -2 6 -13 5 -11 0 -14 -3 -6 -6z"/>
<path d="M6730 8516 c0 -2 7 -7 16 -10 8 -3 12 -2 9 4 -6 10 -25 14 -25 6z"/>
<path d="M3470 8439 c0 -5 5 -7 10 -4 6 3 10 8 10 11 0 2 -4 4 -10 4 -5 0 -10
-5 -10 -11z"/>
<path d="M2560 7821 c0 -6 4 -13 10 -16 6 -3 7 1 4 9 -7 18 -14 21 -14 7z"/>
<path d="M7974 7563 c2 -10 6 -17 10 -16 15 3 16 11 2 22 -12 10 -14 9 -12 -6z"/>
<path d="M2165 7349 c-4 -6 -5 -12 -2 -15 2 -3 7 2 10 11 7 17 1 20 -8 4z"/>
<path d="M8360 6960 c0 -5 5 -10 11 -10 5 0 7 5 4 10 -3 6 -8 10 -11 10 -2 0
-4 -4 -4 -10z"/>
<path d="M1711 6384 c0 -11 3 -14 6 -6 3 7 2 16 -1 19 -3 4 -6 -2 -5 -13z"/>
<path d="M1820 3781 c0 -6 4 -13 10 -16 6 -3 7 1 4 9 -7 18 -14 21 -14 7z"/>
<path d="M8496 3715 c-9 -26 -7 -32 5 -12 6 10 9 21 6 23 -2 3 -7 -2 -11 -11z"/>
<path d="M1855 3670 c-3 -5 -2 -18 4 -27 7 -14 9 -12 8 10 -2 30 -3 31 -12 17z"/>
<path d="M8336 3403 c-6 -14 -5 -15 5 -6 7 7 10 15 7 18 -3 3 -9 -2 -12 -12z"/>
<path d="M7979 2903 c-13 -16 -12 -17 4 -4 16 13 21 21 13 21 -2 0 -10 -8 -17
-17z"/>
<path d="M7941 2853 c-7 -8 -11 -16 -8 -19 2 -2 10 2 17 11 17 20 9 27 -9 8z"/>
<path d="M7880 2796 c0 -2 7 -7 16 -10 8 -3 12 -2 9 4 -6 10 -25 14 -25 6z"/>
<path d="M7739 2603 c-13 -16 -12 -17 4 -4 9 7 17 15 17 17 0 8 -8 3 -21 -13z"/>
<path d="M7651 2506 c-8 -10 -9 -16 -1 -21 5 -3 10 -5 11 -3 4 18 7 38 4 38
-1 0 -8 -6 -14 -14z"/>
<path d="M2806 2422 c-3 -5 1 -9 9 -9 8 0 12 4 9 9 -3 4 -7 8 -9 8 -2 0 -6 -4
-9 -8z"/>
<path d="M4178 1713 c7 -3 16 -2 19 1 4 3 -2 6 -13 5 -11 0 -14 -3 -6 -6z"/>
<path d="M5638 1623 c7 -3 16 -2 19 1 4 3 -2 6 -13 5 -11 0 -14 -3 -6 -6z"/>
</g>
</svg>
