<?xml version="1.0" standalone="no"?>
<!DOCTYPE svg PUBLIC "-//W3C//DTD SVG 20010904//EN"
 "http://www.w3.org/TR/2001/REC-SVG-20010904/DTD/svg10.dtd">
<svg version="1.0" xmlns="http://www.w3.org/2000/svg"
 width="980.000000pt" height="980.000000pt" viewBox="0 0 980.000000 980.000000"
 preserveAspectRatio="xMidYMid meet">
<metadata>
Created by potrace 1.14, written by Peter Selinger 2001-2017
</metadata>
<g transform="translate(0.000000,980.000000) scale(0.100000,-0.100000)"
fill="#000000" stroke="none">
<path d="M0 4900 l0 -4900 4900 0 4900 0 0 4900 0 4900 -4900 0 -4900 0 0
-4900z m3623 3581 c40 -78 46 -121 23 -175 -29 -70 -105 -89 -149 -36 -37 43
-43 98 -18 155 26 59 82 136 95 132 6 -2 28 -36 49 -76z m286 -27 c114 -199
122 -313 27 -407 -20 -21 -50 -39 -69 -42 -110 -21 -210 130 -178 268 11 48
138 287 153 287 3 0 34 -48 67 -106z m2135 -1 c96 -181 108 -278 47 -375 -55
-86 -139 -99 -207 -31 -97 97 -97 215 -2 371 59 97 90 142 97 142 4 0 33 -48
65 -107z m290 13 c41 -81 44 -125 12 -182 -15 -26 -26 -62 -26 -83 0 -42 -26
-85 -109 -183 -69 -80 -95 -137 -95 -210 -1 -31 2 -60 7 -64 12 -12 45 26 61
71 14 40 15 40 15 9 1 -18 -11 -49 -30 -78 -28 -42 -32 -57 -40 -161 -13 -171
-39 -259 -104 -345 -14 -19 -21 -36 -16 -38 17 -6 112 48 156 89 24 23 51 60
61 84 15 40 15 46 0 76 -21 42 -20 46 4 24 25 -23 25 -51 0 -117 -11 -28 -18
-54 -16 -56 2 -2 21 1 43 7 47 13 147 14 191 2 17 -5 32 -6 32 -1 0 5 -4 10
-8 12 -16 6 -132 151 -132 165 0 7 15 21 34 29 56 27 96 13 176 -62 38 -36 74
-63 80 -59 16 10 12 47 -9 69 -34 37 -71 118 -71 155 0 30 51 141 64 141 2 0
3 -44 3 -97 -2 -88 0 -101 22 -131 27 -38 46 -38 74 1 23 30 26 80 12 240 -7
85 -7 89 24 152 17 35 46 76 64 91 33 28 185 104 207 104 20 0 5 -232 -20
-314 -22 -70 -63 -121 -106 -132 -14 -4 -45 -4 -70 0 l-44 6 0 -76 c0 -88 12
-94 47 -23 l23 44 -3 -35 c-2 -34 -1 -35 33 -32 l35 3 -45 -21 c-95 -44 -159
-138 -168 -245 -4 -54 1 -78 52 -223 30 -90 58 -185 62 -211 10 -74 13 -76 75
-56 212 70 325 189 337 355 6 84 -5 104 -61 118 -70 18 -107 72 -107 157 0 39
57 195 79 218 8 8 97 -105 124 -158 23 -47 29 -90 18 -131 -9 -32 -7 -42 14
-78 13 -23 27 -65 31 -93 3 -29 10 -53 15 -53 5 0 9 4 9 9 0 17 82 100 132
134 43 27 209 107 225 107 17 0 -20 -26 -73 -51 -139 -66 -248 -216 -261 -358
l-6 -62 51 -47 c61 -56 72 -82 72 -170 -1 -77 -16 -127 -55 -178 -18 -24 -24
-39 -17 -46 29 -29 105 50 117 122 8 50 25 42 25 -12 0 -52 -25 -103 -66 -136
l-33 -26 35 -48 c40 -54 75 -134 99 -228 9 -36 18 -66 20 -68 2 -2 16 3 32 11
50 26 131 25 164 -2 22 -18 23 -19 5 -46 -21 -32 -66 -52 -138 -63 l-53 -7
-22 -105 c-39 -178 -72 -260 -126 -317 l-31 -33 35 -1 c153 -4 199 29 199 147
0 50 -3 59 -34 90 l-34 34 25 6 c41 11 88 -18 113 -71 43 -89 9 -215 -75 -279
-19 -15 -35 -31 -35 -36 0 -4 21 -18 46 -30 67 -33 115 -24 214 39 82 52 164
81 228 81 19 0 31 -4 27 -10 -3 -5 -20 -10 -37 -10 -58 0 -108 -23 -176 -82
-37 -32 -91 -70 -119 -86 -29 -15 -53 -29 -53 -32 0 -3 15 -13 33 -23 45 -25
123 -94 115 -102 -3 -4 -45 14 -93 40 -85 47 -88 47 -157 43 -46 -4 -75 -11
-86 -22 -15 -15 -15 -18 5 -37 19 -20 22 -20 51 -5 37 19 92 21 115 4 15 -11
10 -12 -31 -10 -37 3 -53 -1 -72 -17 l-25 -22 30 -22 c63 -48 128 -113 146
-149 21 -42 25 -118 8 -166 -11 -31 -63 -72 -90 -72 -8 0 -29 35 -47 79 -122
289 -374 480 -702 530 -41 7 -90 14 -109 17 -33 5 -33 5 -28 -28 8 -46 47
-194 65 -247 22 -66 182 -225 241 -241 32 -8 51 -9 68 -1 27 13 53 66 53 111
0 16 5 30 11 30 12 0 8 -83 -6 -127 -10 -31 8 -29 45 5 22 19 33 39 37 67 5
37 2 44 -35 80 -38 38 -109 181 -96 194 8 8 131 -56 188 -98 78 -58 165 -158
199 -229 18 -38 34 -96 41 -144 14 -98 20 -102 136 -103 111 0 148 19 171 89
15 48 68 106 96 106 31 0 0 -152 -36 -174 -6 -4 -11 -12 -11 -18 0 -10 37 -7
75 6 18 7 17 5 -3 -13 -17 -15 -36 -20 -65 -19 -32 1 -52 -5 -84 -28 -23 -16
-42 -32 -43 -35 0 -3 21 -10 47 -16 36 -9 59 -8 100 3 65 17 92 11 126 -24 38
-42 50 -92 42 -183 -4 -43 -11 -79 -16 -79 -19 0 -89 51 -115 84 -15 19 -37
61 -48 93 -16 43 -28 61 -49 71 -52 25 -287 55 -287 36 0 -3 11 -20 24 -37 13
-18 30 -51 37 -74 12 -42 12 -43 51 -37 60 10 121 -18 157 -73 37 -55 48 -113
54 -264 l4 -116 -96 62 c-173 113 -229 181 -218 264 3 20 9 57 12 82 8 53 -6
88 -57 138 -47 47 -111 76 -229 106 -114 29 -223 72 -311 121 -74 42 -90 47
-122 35 -27 -11 -66 -64 -66 -91 0 -8 14 -23 30 -32 63 -36 89 -122 70 -230
-11 -60 -103 -258 -121 -258 -13 0 -94 141 -123 214 -34 83 -37 170 -9 219 11
18 39 43 68 57 31 16 56 39 69 62 12 20 34 51 49 68 l29 32 -29 32 c-16 17
-54 57 -83 89 -35 37 -77 69 -117 89 -70 34 -46 33 -320 12 -76 -6 -86 -5
-138 20 -64 32 -76 54 -12 26 62 -29 148 -26 217 6 74 35 158 64 186 64 30 0
37 26 24 85 -31 138 -139 244 -305 298 -168 55 -386 75 -419 39 -9 -11 -30
-61 -46 -113 -32 -104 -66 -163 -130 -227 -51 -51 -111 -83 -222 -118 -319
-101 -440 -267 -407 -563 13 -121 37 -195 116 -366 68 -147 98 -227 133 -360
12 -44 30 -99 40 -122 30 -68 102 -137 188 -179 86 -43 124 -47 332 -30 95 7
110 6 162 -13 31 -12 79 -42 107 -67 89 -80 148 -95 301 -75 91 12 169 -1 257
-43 41 -20 90 -36 108 -36 20 0 65 17 109 40 79 42 119 49 150 25 17 -13 14
-14 -30 -9 -38 4 -56 1 -81 -15 -18 -12 -33 -24 -33 -28 0 -5 22 -18 50 -31
33 -15 60 -37 79 -65 40 -58 90 -103 131 -120 55 -22 92 -7 140 58 44 60 56
70 65 55 3 -5 23 -10 43 -11 30 0 33 -2 17 -9 -11 -5 -36 -9 -55 -10 -29 0
-39 -7 -58 -38 -13 -21 -39 -48 -57 -61 -37 -25 -37 -37 2 -52 17 -6 32 -5 53
6 40 21 50 18 21 -5 -28 -24 -69 -25 -118 -5 -50 21 -55 19 -51 -17 3 -27 8
-33 38 -42 25 -6 30 -11 17 -14 -42 -9 -64 6 -70 49 -7 51 -33 81 -66 77 -28
-3 -29 -11 -17 -78 l7 -35 -22 40 c-26 47 -35 54 -60 48 -33 -9 -18 -64 31
-120 18 -20 30 -44 29 -61 l0 -27 -10 24 c-5 13 -25 41 -43 61 -19 21 -40 54
-47 74 -15 40 -39 47 -88 22 -62 -32 -66 -83 -9 -112 17 -9 46 -30 63 -48 73
-71 137 -118 182 -133 26 -9 42 -18 36 -20 -23 -8 -92 18 -143 53 -52 36 -64
36 -72 -1 -3 -14 -8 -8 -17 23 -17 59 -42 82 -90 82 -49 0 -56 -11 -36 -49 23
-46 18 -48 -18 -7 l-32 38 -53 -55 c-28 -31 -52 -62 -52 -71 0 -9 23 -23 57
-36 31 -11 70 -33 87 -48 17 -15 55 -42 84 -61 28 -18 52 -37 52 -42 0 -13 -6
-11 -47 17 -23 15 -47 24 -61 21 -16 -3 -26 2 -34 17 -17 32 -36 43 -118 71
-68 23 -120 32 -120 21 0 -3 5 -17 11 -33 6 -15 17 -68 25 -116 18 -110 35
-152 82 -200 32 -33 34 -37 15 -37 -16 0 -31 16 -55 58 l-33 57 -5 -35 -5 -35
-13 35 -13 35 -21 -25 -21 -25 8 25 c4 14 9 57 12 96 4 58 1 80 -17 122 -22
51 -55 90 -66 79 -4 -4 -2 -32 5 -63 13 -68 9 -78 -14 -34 -20 38 -24 35 -69
-49 -30 -56 -35 -61 -41 -42 -4 13 -27 36 -52 51 -25 16 -54 43 -64 59 -23 38
-41 47 -111 56 -73 9 -83 -6 -43 -68 47 -72 65 -87 105 -87 49 0 117 -59 166
-143 20 -34 45 -71 55 -83 18 -19 18 -22 4 -34 -23 -19 -19 -24 37 -55 77 -42
39 -43 -48 -1 -42 20 -80 36 -85 36 -15 0 -10 -31 12 -66 11 -19 19 -42 17
-51 -2 -12 -16 3 -43 45 -42 65 -55 75 -55 42 0 -11 -4 -20 -10 -20 -5 0 -10
11 -10 24 0 16 -7 27 -21 31 -36 12 -42 -6 -30 -101 6 -49 11 -100 11 -113 0
-41 -16 -10 -30 57 -7 34 -16 62 -20 62 -4 0 -22 -46 -40 -102 -18 -57 -39
-109 -47 -116 -7 -7 -13 -28 -14 -45 0 -29 -1 -30 -9 -9 -5 12 -14 22 -19 22
-14 0 -33 -37 -42 -80 -8 -32 -8 -32 -5 10 2 35 14 62 49 113 43 62 65 117 82
204 6 28 4 33 -13 33 -11 0 -31 -10 -46 -21 -24 -19 -27 -26 -22 -63 l6 -41
-15 30 c-23 49 -19 74 16 93 57 31 81 54 70 65 -10 10 -148 13 -157 4 -2 -2 4
-19 13 -38 14 -26 19 -63 20 -154 2 -81 0 -115 -7 -105 -5 8 -10 23 -10 33 0
30 -15 19 -51 -39 -18 -30 -39 -63 -46 -72 -11 -16 -12 -16 -13 2 0 10 18 51
40 91 44 80 58 147 38 184 -23 43 -40 46 -102 22 -61 -25 -71 -47 -39 -83 25
-28 7 -35 -27 -10 -16 12 -31 18 -33 14 -3 -4 -8 -37 -12 -73 l-7 -66 46 -27
c41 -24 66 -51 66 -72 0 -4 -10 2 -22 13 -13 11 -42 30 -65 42 l-42 21 -16
-23 c-8 -13 -18 -37 -21 -55 -6 -30 -4 -33 39 -52 26 -11 49 -25 52 -30 9 -14
4 -13 -49 11 -26 11 -50 19 -55 17 -18 -7 12 -68 59 -122 28 -32 48 -61 45
-64 -8 -9 -93 77 -125 125 -26 40 -28 41 -49 26 l-22 -15 22 -24 c26 -27 26
-27 -20 -14 -32 9 -104 0 -118 -14 -10 -10 38 -56 107 -102 73 -49 68 -56 -14
-19 -30 14 -57 25 -60 25 -3 0 -7 -37 -7 -82 l-2 -83 -8 68 c-7 62 -21 97 -38
97 -12 0 -64 -92 -82 -148 l-19 -57 3 50 c2 28 16 78 31 112 17 37 25 69 22
81 -4 11 -27 37 -52 58 -53 43 -67 36 -61 -33 3 -30 1 -40 -8 -37 -21 8 -38
-52 -32 -113 4 -42 3 -53 -6 -44 -22 22 -20 137 8 314 14 96 25 189 23 207
l-3 32 -39 -31 c-70 -56 -72 -62 -47 -151 14 -50 21 -107 21 -161 0 -98 -19
-249 -32 -249 -4 0 -8 39 -8 88 l-1 87 -34 -39 c-43 -48 -64 -104 -44 -117 8
-5 24 -9 37 -9 12 0 22 -5 22 -11 0 -8 -12 -10 -35 -6 -65 11 -44 -22 73 -113
28 -22 52 -45 52 -50 0 -5 -39 20 -86 56 -78 59 -86 64 -80 40 9 -35 -5 -33
-35 7 l-24 32 -6 -45 c-4 -35 -7 -41 -13 -25 -4 11 -11 29 -15 40 -7 18 -9 17
-25 -10 l-17 -30 7 35 c14 65 9 104 -19 148 -15 23 -31 41 -36 38 -4 -3 -16
-32 -26 -65 l-18 -60 24 -48 c16 -31 39 -58 68 -77 48 -32 42 -47 -8 -22 -41
21 -51 20 -51 -6 0 -21 -34 -88 -44 -88 -3 0 2 16 10 35 18 45 18 71 -5 120
-18 39 -70 109 -77 102 -2 -1 3 -24 11 -51 12 -41 12 -52 1 -79 l-14 -32 -1
33 c-1 19 -24 76 -58 139 l-57 106 -28 -33 c-15 -19 -30 -50 -34 -70 -10 -60
-18 -67 -23 -20 l-6 45 -16 -25 c-9 -14 -21 -34 -27 -45 -9 -16 -11 -17 -12
-3 0 9 -5 18 -12 20 -7 3 -2 18 15 43 15 22 27 42 27 46 0 11 -115 30 -118 19
-7 -20 -21 -9 -32 25 -6 19 -16 37 -21 41 -5 3 -22 -23 -38 -58 -37 -78 -38
-58 -6 66 30 114 31 148 6 202 -18 40 -113 132 -119 115 -2 -5 4 -26 12 -46
18 -43 19 -45 8 -45 -5 0 -15 15 -24 32 -14 29 -17 31 -24 14 -7 -18 3 -83 20
-131 6 -17 5 -17 -10 2 -28 38 -37 28 -31 -34 6 -55 5 -57 -8 -28 -8 17 -14
35 -15 41 0 7 -6 14 -14 17 -11 4 -17 -6 -22 -36 l-7 -42 -10 45 c-9 45 -60
130 -78 130 -6 0 -6 -7 1 -19 34 -65 31 -99 -4 -40 -22 38 -28 31 -46 -59 -9
-41 -16 -60 -23 -53 -6 6 -4 24 7 51 9 22 16 56 16 75 0 41 -34 135 -60 167
l-18 23 -12 -30 c-6 -16 -8 -46 -5 -67 11 -61 -10 -44 -23 19 -8 38 -8 61 -2
67 17 17 11 74 -14 134 -13 31 -27 75 -31 97 -13 68 -18 71 -59 34 l-38 -32 7
36 c7 33 5 37 -20 43 -18 5 -30 2 -36 -7 -14 -23 -10 -103 6 -126 19 -28 78
-47 121 -40 l34 6 -16 -31 c-14 -28 -17 -29 -26 -14 -7 13 -17 16 -34 12 -15
-4 -33 -1 -47 9 -41 28 -50 12 -18 -33 22 -32 36 -72 24 -72 -5 0 -14 14 -20
30 -13 35 -43 41 -43 8 0 -13 -4 -18 -9 -12 -11 12 -31 164 -31 237 0 56 0 57
-30 59 -16 0 -36 1 -42 2 -16 1 -12 -71 8 -127 18 -51 18 -66 -1 -41 -8 11
-15 14 -15 7 0 -7 -3 -13 -7 -13 -5 0 -9 26 -9 58 -1 31 -8 73 -16 92 l-14 35
-18 -27 c-10 -15 -22 -60 -27 -100 -10 -80 -29 -117 -23 -44 9 110 12 132 19
149 6 14 2 17 -22 17 -35 0 -48 -13 -93 -93 -35 -64 -49 -71 -25 -14 21 51 19
100 -5 122 -11 10 -26 15 -35 11 -12 -4 -15 -1 -12 12 3 16 -18 72 -29 72 -7
0 -67 -69 -81 -94 l-12 -21 -1 22 c0 12 6 28 13 35 43 43 50 66 42 153 -4 47
-10 85 -14 85 -12 0 -46 -42 -74 -91 -14 -25 -33 -52 -42 -59 -14 -12 -16 -11
-10 13 8 29 -3 34 -36 17 -13 -8 -19 -7 -19 0 0 6 16 18 35 26 19 8 46 31 59
52 13 20 83 95 155 167 72 71 131 136 131 144 0 22 -75 7 -116 -24 -21 -16
-47 -51 -64 -88 -18 -40 -40 -69 -59 -80 -36 -21 -53 -23 -23 -1 29 20 57 77
66 131 l6 43 -88 0 c-73 0 -97 -4 -135 -24 -26 -13 -47 -19 -47 -15 0 14 -33
10 -54 -6 -15 -11 -21 -31 -24 -76 -5 -71 -22 -61 -22 13 0 56 -17 57 -50 1
-11 -20 -23 -33 -26 -30 -4 3 1 16 10 29 21 30 20 41 -4 35 -35 -9 -10 13 48
42 72 36 163 66 275 90 49 11 91 22 94 25 9 9 -43 25 -118 38 l-69 12 -35 -34
c-35 -34 -47 -32 -20 4 18 24 7 47 -37 70 -31 17 -37 17 -64 3 -16 -8 -45 -18
-64 -22 -46 -10 -75 -30 -99 -68 -26 -40 -28 -13 -2 29 11 19 41 41 77 59 l59
28 -33 10 c-27 8 -44 5 -100 -16 -67 -26 -149 -47 -107 -27 11 5 37 16 58 24
20 8 37 21 37 28 0 19 -82 68 -114 68 -31 0 -61 -14 -93 -43 -19 -17 -27 -18
-55 -10 -25 9 -28 11 -11 12 12 1 54 18 93 40 53 28 67 41 58 48 -29 23 -60
24 -118 4 -33 -12 -70 -21 -83 -21 -25 1 102 49 149 57 24 4 49 -5 106 -36 41
-23 81 -41 89 -41 8 0 35 15 61 34 26 18 69 39 95 46 79 20 75 17 63 41 -27
50 -104 57 -200 17 l-45 -18 32 29 c62 57 136 61 229 13 l52 -26 60 37 c117
72 186 82 319 46 109 -30 145 -23 273 55 126 77 199 103 325 116 64 7 125 21
187 44 51 19 125 44 163 55 82 24 179 83 216 132 38 50 63 126 64 189 0 51 -5
63 -69 163 -111 176 -136 265 -136 495 0 112 -5 164 -19 218 -11 40 -22 109
-26 155 -13 155 -36 217 -134 362 -134 198 -279 287 -465 287 -214 0 -388 -93
-472 -252 -33 -64 -38 -82 -38 -142 -1 -82 -5 -78 144 -122 97 -29 161 -35
215 -21 l30 8 -25 -21 c-23 -20 -32 -21 -190 -18 -201 4 -199 4 -346 -131
l-104 -96 25 -20 c14 -11 38 -41 54 -66 15 -25 52 -65 80 -89 99 -83 94 -165
-23 -387 -26 -51 -51 -93 -55 -93 -7 0 -69 103 -107 179 -60 120 -38 244 52
297 49 29 50 32 28 77 -46 91 -125 87 -324 -13 -36 -18 -111 -50 -168 -70
-117 -43 -162 -74 -203 -138 -27 -43 -29 -53 -29 -144 0 -78 -4 -107 -20 -137
-24 -47 -83 -99 -170 -150 -36 -21 -83 -48 -104 -61 l-39 -24 7 128 c11 185
39 262 115 313 28 19 48 23 107 23 57 0 74 3 74 14 0 8 13 39 30 70 24 47 27
58 14 63 -21 8 -160 -14 -214 -34 -61 -22 -70 -31 -70 -65 0 -34 -24 -95 -47
-120 -20 -22 -122 -82 -129 -76 -2 3 -8 29 -14 59 -15 79 2 153 46 197 l35 35
77 -7 c54 -4 86 -2 107 8 l30 13 -69 31 c-46 22 -84 32 -116 32 -33 0 -55 6
-73 20 -23 18 -32 20 -65 10 -51 -13 -93 -4 -134 30 l-33 28 25 21 c31 26 94
44 123 35 27 -8 67 -43 67 -59 0 -7 9 -24 21 -39 16 -20 29 -26 60 -26 l40 0
-18 27 c-41 60 -57 146 -35 181 10 15 92 -59 92 -83 0 -32 41 -95 73 -112 38
-21 179 -25 198 -6 6 6 18 56 26 110 20 136 56 207 153 303 71 70 202 160 208
142 6 -19 -50 -156 -77 -190 -33 -39 -39 -74 -19 -117 13 -28 76 -69 66 -44
-26 69 -30 89 -23 105 6 16 9 14 17 -15 22 -79 64 -105 145 -92 77 12 113 36
213 138 l93 96 9 96 c4 53 12 114 17 136 6 22 8 41 6 43 -11 12 -190 13 -251
3 -126 -22 -297 -118 -407 -227 -66 -65 -101 -118 -159 -242 -58 -125 -72
-142 -108 -142 -40 0 -70 34 -70 80 0 45 47 154 110 253 l43 69 -20 20 c-26
25 -81 26 -117 3 -34 -23 -48 -9 -17 16 29 24 100 25 142 3 58 -29 81 3 26 36
-83 52 -137 47 -256 -21 -39 -23 -74 -40 -77 -37 -8 8 53 65 108 103 l50 33
-54 25 c-29 13 -84 52 -121 85 -45 40 -88 68 -125 82 l-57 20 42 -4 c44 -4
107 -32 208 -91 67 -39 100 -43 152 -18 49 23 51 39 10 81 -49 50 -70 104 -70
178 1 93 42 154 105 154 37 0 43 -15 14 -34 -68 -44 -47 -189 34 -231 27 -14
137 -34 188 -35 22 0 21 3 -18 47 -61 70 -117 191 -141 308 -12 55 -28 107
-35 115 -8 8 -43 29 -77 45 -63 31 -79 53 -57 80 16 20 83 19 121 -1 17 -8 32
-14 33 -12 0 2 17 49 35 106 19 57 53 136 77 175 l42 70 -43 43 c-48 47 -58
71 -53 130 4 41 4 41 31 -30 15 -42 56 -86 78 -86 20 0 25 19 10 36 -47 49
-69 150 -52 236 12 57 38 90 94 118 96 48 -4 314 -159 421 -24 16 -62 36 -84
44 -38 13 -41 13 -60 -7 -11 -12 -20 -26 -20 -30 0 -5 -16 -16 -37 -24 -54
-23 -107 1 -178 78 -30 34 -52 64 -50 68 7 12 89 30 134 30 50 0 89 -14 121
-45 14 -13 54 -35 90 -48 148 -55 244 -128 291 -218 11 -22 23 -37 28 -35 4 3
11 37 14 76 4 44 16 92 31 127 15 30 26 73 26 95 0 51 18 93 82 184 60 87 55
88 116 -35 28 -56 36 -86 36 -125 0 -93 -59 -156 -146 -156 -35 0 -38 -2 -49
-42 -14 -53 -1 -148 30 -210 27 -56 82 -113 134 -140 46 -23 195 -78 213 -78
7 0 15 17 19 38 3 20 29 105 57 187 43 124 51 162 51 220 0 126 -61 221 -178
277 -57 27 -58 28 -21 23 l39 -6 -6 35 c-8 47 -1 46 19 -4 14 -34 50 -70 58
-58 1 2 1 38 -2 80 l-4 76 -54 -5 c-51 -5 -55 -4 -88 29 -55 55 -77 144 -74
301 l3 127 82 -40 c166 -81 219 -200 181 -406 -14 -78 -2 -127 41 -168 l29
-28 31 42 c35 49 45 88 38 158 -6 70 5 82 34 35 44 -70 24 -189 -41 -248 -12
-11 -26 -31 -31 -44 -10 -24 -4 -61 9 -61 4 0 27 25 51 56 77 99 179 141 235
99 28 -21 13 -48 -81 -146 -59 -62 -72 -80 -53 -75 44 13 184 18 228 8 35 -8
42 -8 38 3 -23 61 -26 96 -11 131 18 44 30 41 13 -3 -27 -71 38 -166 153 -223
33 -17 63 -29 65 -27 3 2 -13 38 -35 78 -50 93 -71 178 -71 299 0 73 -5 105
-20 139 -13 27 -20 63 -19 95 l1 51 12 -57 c20 -100 51 -98 76 5 11 44 10 52
-14 101 -24 49 -77 105 -155 164 -16 12 -44 43 -61 68 -25 37 -28 49 -19 61
10 12 14 8 25 -22 16 -47 34 -67 122 -132 40 -30 89 -76 109 -103 l36 -49 40
45 c40 45 157 132 157 117 0 -5 -25 -33 -56 -63 -67 -66 -100 -127 -114 -211
-21 -134 -9 -250 41 -379 28 -74 106 -180 133 -180 7 0 22 31 34 68 24 75 63
140 112 187 29 28 32 29 58 14 49 -27 51 -59 9 -147 -57 -118 -70 -186 -64
-322 8 -185 53 -280 191 -406 64 -59 207 -163 263 -193 43 -22 14 15 -50 66
-146 114 -258 237 -310 339 -85 168 -78 379 18 539 48 80 76 107 149 147 59
32 65 33 171 33 99 0 115 -3 165 -27 56 -28 103 -66 131 -105 l16 -23 48 46
c26 26 78 60 114 78 59 27 76 31 156 31 82 0 96 -3 158 -33 181 -89 266 -248
254 -472 -10 -180 -62 -275 -222 -405 -96 -78 -145 -133 -145 -161 0 -16 94
43 191 119 113 88 176 183 209 312 39 154 21 304 -51 427 -43 73 -47 93 -23
126 26 37 67 29 109 -22 36 -45 94 -166 95 -198 0 -32 36 -19 78 26 22 24 47
57 55 72 41 82 87 277 87 369 -1 117 -46 209 -137 277 -29 23 -52 43 -49 45 2
3 24 -4 48 -15 49 -22 106 -75 145 -134 l27 -40 12 36 c18 51 63 112 134 181
69 68 90 101 90 144 0 24 -7 34 -41 53 -23 12 -47 35 -55 50 -27 52 -11 133
41 209 26 36 29 38 45 24 9 -8 29 -40 44 -69z m-670 -41 c90 -38 121 -157 59
-220 -44 -43 -102 -25 -129 41 -14 34 -19 140 -8 182 7 24 14 24 78 -3z
m-1454 -65 c0 -121 -34 -180 -102 -180 -60 0 -90 118 -48 187 22 37 82 72 123
73 l27 0 0 -80z m2305 60 c6 -19 -8 -85 -22 -106 -16 -23 -52 -35 -73 -24 -26
14 -27 78 -2 108 35 40 87 52 97 22z m-3124 -20 c25 -24 30 -37 27 -67 -3 -34
-6 -38 -34 -41 -40 -4 -63 22 -73 87 l-8 51 29 0 c19 0 40 -10 59 -30z m2121
-94 c56 -131 45 -243 -28 -282 -48 -26 -52 -54 -23 -138 27 -80 12 -71 194
-111 109 -24 163 -53 234 -127 34 -35 61 -66 61 -69 0 -11 -88 -49 -140 -61
-55 -13 -114 -1 -162 33 -29 21 -110 128 -151 201 -22 39 -35 49 -76 63 -26 8
-58 26 -70 39 -19 20 -28 23 -53 15 -64 -18 -125 8 -194 84 -49 54 -69 96
-105 216 l-18 63 52 -6 c163 -22 251 -61 306 -137 40 -55 48 -102 28 -159 -16
-44 -16 -46 6 -67 12 -12 35 -25 51 -29 28 -7 29 -6 21 22 -4 16 -10 58 -14
94 -4 48 -14 76 -35 107 -38 57 -44 117 -18 172 21 43 92 141 102 141 3 0 17
-29 32 -64z m-1121 -22 c61 -126 25 -253 -68 -242 -43 5 -68 50 -68 121 0 56
5 69 44 129 24 38 47 65 52 62 5 -3 23 -34 40 -70z m-1240 35 c19 -7 38 -15
42 -19 5 -4 -9 -36 -30 -71 -29 -48 -50 -70 -83 -86 -73 -38 -153 -26 -222 32
l-31 26 45 42 c24 24 64 53 89 64 50 25 136 30 190 12z m3712 0 c24 -6 60 -31
95 -65 l57 -55 -30 -20 c-71 -48 -108 -61 -153 -56 -62 7 -108 56 -160 169 -4
9 85 36 123 37 17 1 47 -4 68 -10z m-3468 -59 c9 -7 15 -29 15 -51 0 -48 -38
-79 -98 -79 -38 0 -99 16 -115 29 -10 10 50 89 82 106 29 17 93 14 116 -5z
m3227 -31 c27 -29 47 -57 45 -63 -5 -16 -65 -35 -112 -35 -74 -1 -140 62 -115
109 15 28 40 39 89 40 41 0 49 -4 93 -51z m-1782 -8 c0 -18 -51 -164 -71 -203
-30 -58 -107 -131 -155 -147 -58 -19 -120 1 -149 46 -11 18 -23 32 -27 33 -13
0 -60 -90 -55 -104 6 -14 53 -11 63 5 3 5 10 9 16 9 24 0 -17 -31 -55 -41 -62
-16 -80 -33 -123 -111 -77 -141 -162 -207 -249 -193 -23 3 -70 19 -104 35
l-62 30 21 29 c29 42 97 99 150 126 25 12 95 35 155 50 61 15 120 33 132 41
28 17 97 136 112 190 22 83 101 162 184 185 85 25 217 37 217 20z m2311 -48
c57 -61 69 -84 69 -136 0 -42 -5 -54 -34 -83 -42 -42 -69 -43 -108 -4 -28 29
-30 35 -26 88 4 53 44 172 58 172 3 0 22 -17 41 -37z m-4407 -32 c30 -67 33
-118 9 -168 -20 -43 -32 -48 -78 -33 -89 29 -88 136 3 233 14 15 29 27 33 27
3 0 18 -26 33 -59z m1461 -72 c31 -62 40 -93 39 -129 -1 -58 -33 -112 -81
-135 -97 -47 -173 83 -110 187 40 66 102 157 107 157 4 1 24 -35 45 -80z
m1475 60 c0 -6 23 -43 52 -82 46 -62 52 -77 56 -128 4 -54 2 -60 -26 -89 -72
-72 -182 -4 -182 114 0 21 16 66 42 115 39 75 58 98 58 70z m-2041 -103 c55
-29 69 -111 24 -146 -22 -18 -37 -21 -73 -17 -40 4 -52 12 -102 67 -32 35 -58
66 -58 71 0 13 83 37 133 38 26 1 60 -5 76 -13z m2747 3 c24 -6 46 -15 49 -19
3 -4 -20 -33 -50 -63 -57 -59 -113 -85 -157 -74 -33 9 -51 49 -37 84 29 76 90
98 195 72z m-2028 -11 c18 -18 14 -36 -13 -54 -35 -23 -85 -11 -85 21 0 13 8
29 18 34 23 14 65 14 80 -1z m-1760 -67 c15 -16 36 -41 47 -56 15 -20 36 -30
83 -40 35 -7 66 -16 69 -19 14 -14 -6 -14 -74 1 -69 15 -72 15 -117 -7 -35
-17 -56 -20 -84 -15 -44 8 -142 69 -142 89 0 20 116 76 157 76 25 0 42 -8 61
-29z m4820 -3 c62 -31 69 -44 41 -68 -68 -56 -170 -77 -217 -44 -20 14 -32 14
-91 4 -86 -16 -117 -7 -36 10 33 6 65 14 72 16 7 1 21 21 33 43 37 74 102 86
198 39z m-2557 -152 c-25 -107 -53 -162 -100 -193 -47 -32 -96 -30 -153 6 -36
23 -50 39 -59 69 -15 51 1 102 42 136 33 28 114 60 178 71 24 4 58 13 75 20
42 18 43 6 17 -109z m-1371 57 c110 -44 151 -91 158 -183 4 -52 2 -60 -25 -90
-24 -26 -39 -33 -79 -37 -119 -12 -189 84 -201 274 l-6 93 54 -20 c30 -11 74
-27 99 -37z m3007 -60 c-6 -134 -19 -175 -71 -221 -47 -41 -87 -49 -134 -25
-90 46 -97 187 -14 266 24 23 182 94 216 96 5 1 6 -51 3 -116z m-1388 86 c72
-11 113 -29 153 -67 30 -27 44 -77 33 -111 -10 -32 -55 -70 -97 -82 -109 -29
-209 73 -232 239 l-6 42 42 -5 c24 -4 72 -11 107 -16z m-2731 -78 c141 -74
209 -171 205 -291 -4 -136 -69 -216 -161 -195 -42 9 -108 79 -126 133 -12 35
-16 89 -16 225 0 98 3 177 8 175 4 -1 44 -23 90 -47z m5217 -316 c-13 -92 -83
-165 -158 -165 -71 0 -137 91 -137 188 0 81 44 183 98 227 13 11 59 41 101 67
l76 47 13 -162 c7 -89 10 -180 7 -202z m-5383 208 c31 -69 46 -160 34 -207 -7
-30 -58 -60 -86 -51 -50 16 -87 106 -71 176 8 36 75 149 88 149 2 0 18 -30 35
-67z m5538 5 c40 -61 42 -65 38 -130 -3 -58 -8 -72 -33 -98 -37 -38 -76 -40
-104 -4 -17 21 -21 41 -21 98 0 59 5 82 30 134 17 34 35 62 40 62 4 0 27 -28
50 -62z m241 -249 c19 -7 38 -15 43 -19 15 -14 -72 -128 -118 -155 -110 -64
-218 -1 -171 99 35 73 148 107 246 75z m-4942 -67 c45 -49 7 -132 -71 -152
-28 -8 -54 -7 -104 5 -36 8 -70 18 -75 20 -11 7 76 122 104 136 62 34 110 31
146 -9z m3891 13 c25 -13 120 -114 120 -128 0 -9 -93 -37 -145 -43 -63 -7
-112 17 -139 66 -17 32 -17 39 -5 65 8 16 25 35 39 42 34 17 95 16 130 -2z
m-4660 -125 c57 -30 74 -118 32 -163 -31 -32 -99 -50 -151 -38 -76 17 -203
131 -170 152 8 5 20 9 27 9 7 0 31 9 53 21 70 35 160 44 209 19z m5478 -17
c39 -21 72 -43 72 -51 0 -26 -104 -120 -147 -132 -155 -46 -255 135 -110 201
62 28 102 24 185 -18z m-4892 -88 c86 -56 95 -208 15 -249 -61 -32 -110 -12
-142 58 -21 46 -25 148 -9 208 l11 38 50 -19 c28 -11 62 -27 75 -36z m4244
-42 c0 -64 -5 -99 -19 -128 -42 -90 -135 -131 -194 -85 -54 43 -48 149 12 209
33 33 149 89 189 90 9 1 12 -23 12 -86z m-5168 -149 c35 -77 40 -93 36 -143
-7 -105 -68 -151 -132 -100 -61 48 -73 133 -31 213 23 43 75 116 83 116 2 0
22 -39 44 -86z m5893 -28 c-8 -122 -28 -173 -88 -220 -30 -24 -50 -31 -97 -34
-57 -4 -61 -3 -95 31 -31 31 -35 41 -35 87 0 59 28 120 67 146 13 8 66 30 118
49 51 18 102 38 112 43 10 6 20 9 22 7 2 -2 0 -51 -4 -109z m207 57 c59 -79
71 -110 64 -167 -6 -60 -48 -106 -94 -106 -25 0 -32 7 -53 52 -32 69 -31 135
3 211 15 31 31 57 35 57 5 0 25 -21 45 -47z m-5908 16 c130 -39 175 -72 196
-146 17 -56 5 -109 -31 -146 -27 -27 -35 -29 -80 -25 -81 8 -157 80 -168 160
-7 48 -2 178 6 178 3 0 38 -10 77 -21z m-316 -341 c94 -184 125 -325 88 -396
-54 -103 -165 -123 -248 -45 -66 62 -86 178 -53 306 22 86 125 275 143 263 4
-2 36 -60 70 -128z m6405 10 c92 -186 108 -313 50 -406 -39 -64 -74 -86 -141
-92 -51 -4 -58 -8 -66 -32 -14 -39 -3 -44 55 -26 80 26 42 -5 -42 -33 -39 -13
-84 -35 -101 -49 l-30 -25 38 -25 c59 -39 76 -69 81 -147 4 -56 1 -74 -16
-100 -18 -29 -26 -33 -62 -33 -52 0 -72 11 -99 57 -16 27 -23 56 -24 99 -1 56
2 66 39 120 39 56 40 61 40 138 0 45 -3 100 -8 124 -4 24 -3 42 2 42 10 0 31
-109 31 -163 0 -41 7 -48 37 -36 14 5 26 24 36 56 13 46 13 49 -9 68 -51 46
-69 145 -43 240 13 45 170 326 179 320 4 -2 27 -46 53 -97z m-237 10 c-3 -13
-15 -81 -26 -153 -24 -158 -40 -215 -76 -262 -56 -74 -181 -95 -254 -43 -64
46 -89 154 -51 228 42 82 131 144 305 213 110 45 110 45 102 17z m-5927 -45
c161 -81 246 -210 211 -319 -47 -148 -239 -145 -307 3 -24 51 -27 74 -32 211
l-6 154 30 -6 c17 -3 63 -23 104 -43z m-108 -439 c-17 -93 -3 -147 55 -214 69
-81 79 -157 32 -242 -22 -38 -69 -68 -108 -68 -38 0 -81 30 -97 67 -28 69 7
188 71 239 20 16 36 32 36 36 0 11 -90 59 -139 74 -27 8 -60 23 -73 34 -23 19
-22 19 30 0 66 -25 70 -25 74 3 3 20 5 19 21 -11 17 -31 53 -55 70 -45 4 2 7
32 7 66 0 62 17 144 27 133 3 -2 0 -35 -6 -72z m6465 -136 c-14 -145 -54 -246
-112 -284 -15 -10 -45 -17 -71 -17 -38 0 -50 5 -69 26 -48 55 -39 150 19 213
28 30 205 133 231 134 5 0 6 -32 2 -72z m-6823 32 c158 -59 233 -200 162 -304
-30 -45 -31 -51 -3 -70 27 -19 38 -13 39 22 1 31 5 22 14 -30 3 -21 18 -52 32
-69 15 -17 32 -52 38 -77 7 -25 19 -50 27 -56 22 -13 66 1 73 24 8 26 25 26
25 1 0 -26 -37 -51 -76 -51 -39 0 -51 13 -64 77 -7 31 -20 58 -36 72 -13 11
-24 27 -24 35 0 8 -16 20 -36 26 -20 7 -40 22 -46 36 -8 16 -20 24 -37 24 -14
0 -45 9 -68 19 -68 31 -111 128 -128 290 l-7 64 29 -6 c16 -3 54 -15 86 -27z
m6507 -351 c0 -16 4 -29 10 -29 5 0 -11 -27 -35 -60 -25 -32 -52 -76 -59 -97
-24 -69 -94 -96 -150 -59 -15 9 -26 26 -26 39 0 21 1 20 23 -7 42 -53 127 -26
142 44 3 16 22 50 41 77 26 37 34 58 34 91 0 26 4 41 10 37 6 -3 10 -19 10
-36z m-6432 -39 c29 -18 62 -71 62 -100 0 -5 -9 -19 -20 -30 -26 -26 -94 -27
-137 -1 -29 18 -77 86 -85 120 -7 34 129 42 180 11z m6770 5 c1 -1 -15 -29
-37 -62 -25 -38 -53 -66 -74 -77 -77 -36 -167 -8 -153 47 18 72 93 111 196
101 36 -3 66 -7 68 -9z m-6602 -306 c59 -28 104 -88 104 -138 0 -43 -34 -106
-73 -135 -23 -17 -42 -21 -95 -20 -105 1 -172 37 -314 173 -32 30 -58 58 -58
62 0 9 165 65 231 79 63 13 151 4 205 -21z m6504 -15 c63 -20 119 -36 124 -38
9 -2 -135 -134 -198 -180 -86 -64 -202 -83 -282 -47 -158 72 -96 270 96 305
51 9 148 -6 260 -40z m-4680 18 c0 -29 -39 -140 -70 -202 -57 -112 -127 -141
-222 -93 -33 16 -43 47 -34 107 19 124 112 185 314 205 6 0 12 -7 12 -17z
m2653 -4 c115 -21 197 -102 205 -202 4 -46 1 -56 -19 -75 -48 -45 -158 -21
-217 48 l-22 26 10 -28 c5 -16 10 -39 10 -51 0 -24 28 -36 89 -36 23 -1 24 -2
8 -11 -10 -6 -33 -8 -51 -5 -18 4 -55 -1 -86 -10 -71 -21 -117 -8 -173 49 -41
41 -87 116 -102 166 -7 23 -7 24 51 17 92 -10 156 -27 193 -49 25 -15 33 -17
28 -6 -30 71 -57 139 -63 163 l-7 28 44 -7 c24 -3 70 -11 102 -17z m-2448
-120 c-22 -74 -79 -171 -116 -198 -39 -28 -42 -28 -155 -26 -63 2 -117 6 -121
10 -3 3 8 6 25 6 58 0 82 16 82 53 0 43 46 108 91 130 30 14 152 44 187 46 9
1 11 -6 7 -21z m-909 -35 c-3 -10 -15 -54 -26 -98 -24 -93 -61 -153 -110 -177
-39 -20 -142 -24 -184 -9 -24 10 -24 11 -12 58 40 150 148 240 289 242 42 1
48 -1 43 -16z m4082 -8 c91 -27 142 -87 177 -209 20 -68 15 -76 -51 -76 -60 0
-136 26 -166 57 -37 38 -97 184 -98 236 0 12 84 8 138 -8z m-5451 -174 c116
-25 165 -50 187 -95 41 -86 6 -146 -86 -146 -27 0 -62 7 -77 15 -46 23 -118
112 -140 171 -27 72 -27 86 2 79 12 -3 63 -14 114 -24z m6803 22 c-1 -35 -33
-151 -50 -181 -31 -54 -65 -75 -130 -80 -72 -5 -90 10 -90 76 0 53 25 102 65
128 14 9 61 27 103 39 86 26 102 28 102 18z m-6317 -38 c21 -21 30 -68 22
-117 -17 -99 -149 -159 -183 -83 -18 40 -14 106 8 143 37 61 119 91 153 57z
m5900 -9 c54 -23 80 -59 85 -118 5 -68 -22 -108 -73 -108 -57 0 -84 33 -110
135 -18 67 -20 92 -12 97 19 12 75 9 110 -6z m-1730 -47 c52 -23 66 -102 26
-145 -46 -49 -126 -55 -256 -18 -36 10 -63 23 -63 30 0 22 97 114 143 135 45
21 101 20 150 -2z m-2504 -3 c49 -26 133 -137 113 -150 -25 -15 -181 -39 -215
-32 -88 17 -115 106 -51 169 22 22 36 27 76 27 27 0 62 -7 77 -14z m-356 -70
c31 -13 119 -80 125 -96 1 -4 -21 -18 -50 -31 -98 -43 -191 -26 -250 45 -29
35 -22 55 25 76 50 23 105 25 150 6z m3262 -3 c15 -9 13 -15 -17 -54 -55 -72
-92 -91 -163 -87 -33 2 -80 13 -104 24 l-45 20 48 39 c64 52 135 77 208 71 31
-2 64 -8 73 -13z m1638 -219 c21 -14 37 -31 34 -37 -8 -24 -70 -57 -108 -57
-38 0 -109 27 -109 41 0 24 27 60 54 74 38 19 78 13 129 -21z m-5468 -88 c34
-25 0 -159 -49 -191 -22 -14 -153 -54 -180 -55 -15 0 2 117 23 158 23 45 46
66 91 86 44 19 91 20 115 2z m4362 -12 c48 -24 83 -73 104 -151 10 -37 16 -70
14 -72 -9 -8 -134 18 -170 35 -50 24 -86 74 -93 131 -4 37 -1 49 13 60 26 18
90 16 132 -3z m-4720 -188 c27 -23 28 -29 28 -108 0 -70 -4 -92 -29 -145 -16
-35 -33 -63 -37 -63 -18 0 -89 104 -105 153 -21 67 -8 124 37 161 38 32 70 33
106 2z m5095 -5 c31 -28 33 -33 33 -98 0 -63 -3 -72 -41 -128 -62 -90 -69 -94
-94 -53 -36 59 -53 125 -48 190 4 53 9 65 36 89 41 37 73 37 114 0z"/>
<path d="M4601 7423 c-56 -20 -135 -97 -163 -160 -16 -36 -22 -69 -22 -133 -2
-154 44 -233 211 -365 186 -148 267 -208 284 -212 22 -6 362 250 419 314 80
91 112 204 91 319 -6 37 -21 83 -31 104 -37 72 -130 134 -222 146 -56 8 -135
-22 -203 -75 l-49 -40 -26 20 c-122 96 -193 116 -289 82z m177 -27 c15 -8 53
-35 82 -59 l54 -45 60 49 c56 45 131 79 176 79 44 0 121 -33 164 -71 73 -65
90 -106 91 -219 0 -88 -3 -101 -33 -163 -24 -49 -51 -82 -100 -126 -97 -86
-334 -260 -355 -261 -21 0 -289 201 -365 274 -31 30 -66 78 -85 116 -28 57
-32 74 -32 150 0 97 23 161 78 218 73 77 182 101 265 58z"/>
<path d="M4598 7320 c-140 -75 -144 -306 -6 -436 45 -43 123 -104 249 -196
l76 -56 139 104 c201 151 235 183 269 249 38 76 42 177 8 240 -43 80 -98 115
-182 115 -66 0 -108 -20 -175 -81 l-56 -51 -57 50 c-32 27 -72 57 -90 66 -44
22 -129 20 -175 -4z"/>
<path d="M3427 7243 c-62 -21 -140 -91 -161 -144 -9 -23 -14 -44 -11 -47 10
-10 53 17 72 44 41 62 91 101 144 114 49 12 165 9 229 -5 14 -3 0 7 -30 22
-70 34 -172 41 -243 16z"/>
<path d="M6232 7245 c-52 -14 -136 -54 -117 -54 6 -1 35 6 65 14 139 37 227 9
310 -101 38 -51 67 -68 90 -54 9 5 5 19 -15 49 -81 129 -203 182 -333 146z"/>
<path d="M3620 7071 c-19 -5 -66 -17 -105 -28 -38 -12 -101 -29 -138 -38 -66
-17 -137 -65 -137 -93 0 -6 35 5 77 25 117 54 287 93 403 92 57 0 111 -6 135
-14 48 -17 52 -18 39 -5 -17 17 -138 58 -189 63 -27 3 -66 2 -85 -2z"/>
<path d="M6035 7070 c-53 -13 -135 -51 -135 -63 0 -5 8 -6 18 -2 9 4 49 14 87
22 142 31 329 1 510 -82 43 -19 80 -34 81 -32 9 9 -32 49 -66 67 -54 28 -310
90 -390 95 -36 2 -83 0 -105 -5z"/>
<path d="M7233 6897 c-44 -66 -94 -113 -177 -164 -26 -17 -44 -33 -40 -36 18
-11 125 -26 142 -20 70 25 132 121 131 203 -1 84 -10 87 -56 17z"/>
<path d="M2576 6942 c-14 -23 -18 -101 -6 -137 16 -49 74 -112 110 -120 15 -3
57 -1 92 5 122 20 120 16 28 68 -83 47 -144 98 -192 161 -14 19 -28 29 -32 23z"/>
<path d="M6003 6880 l-31 -10 2 -168 3 -167 39 3 c71 5 191 32 320 73 71 22
164 47 206 57 70 15 77 19 72 37 -12 45 -70 81 -191 118 -65 19 -140 40 -168
46 -79 15 -217 21 -252 11z m166 -40 c44 -22 81 -64 81 -91 0 -27 13 -23 32 9
9 15 25 36 36 46 20 17 21 17 32 -5 39 -73 29 -136 -25 -162 -45 -22 -65 -22
-65 0 0 14 -3 13 -20 -5 -36 -38 -91 -28 -117 22 -22 42 -20 206 3 206 3 0 22
-9 43 -20z"/>
<path d="M3635 6873 c-235 -51 -360 -95 -395 -140 -27 -35 -25 -51 8 -59 107
-24 205 -51 317 -86 208 -64 328 -98 333 -93 6 6 -16 206 -27 245 -34 114
-116 160 -236 133z m93 -109 c-4 -78 -7 -87 -34 -114 -41 -40 -68 -46 -93 -21
-16 16 -21 18 -21 6 0 -18 -38 -20 -73 -4 -27 12 -47 47 -47 81 0 25 38 108
49 108 11 0 36 -30 53 -64 l15 -29 24 43 c24 43 76 80 113 80 17 0 18 -7 14
-86z"/>
<path d="M2424 6768 c-32 -61 -21 -160 24 -210 22 -26 34 -23 83 21 l44 38
-37 41 c-20 22 -45 63 -55 91 -10 28 -23 51 -30 51 -7 0 -20 -15 -29 -32z"/>
<path d="M7352 6750 c-11 -27 -35 -70 -53 -96 l-32 -47 24 -19 c57 -45 67 -50
87 -39 27 14 52 81 52 137 0 50 -25 114 -45 114 -7 0 -22 -22 -33 -50z"/>
<path d="M5818 6775 c-4 -11 -16 -54 -28 -95 -34 -118 -75 -175 -186 -257
l-29 -22 38 0 c58 -1 100 22 139 75 53 72 80 160 76 247 -2 43 -6 64 -10 52z"/>
<path d="M4042 6628 c10 -163 113 -280 196 -222 12 8 22 19 22 23 0 9 -177
231 -207 261 -14 13 -15 7 -11 -62z"/>
<path d="M2864 6560 c-154 -23 -276 -95 -384 -230 -157 -195 -167 -426 -29
-656 28 -47 95 -111 106 -101 1 2 -13 39 -32 82 -88 203 -84 480 9 650 58 107
169 175 285 175 89 0 152 -77 159 -195 1 -33 5 -69 7 -81 4 -20 69 -63 79 -53
3 3 -4 33 -14 67 -11 34 -29 124 -40 199 -11 80 -25 140 -32 145 -15 9 -42 9
-114 -2z"/>
<path d="M6856 6548 c-3 -13 -12 -75 -21 -138 -8 -63 -25 -146 -36 -184 -11
-37 -18 -70 -15 -73 10 -10 57 28 66 53 6 14 7 42 4 63 -7 45 10 114 38 151
50 68 170 79 264 24 149 -87 224 -252 224 -491 0 -150 -31 -265 -91 -342 -28
-35 -23 -44 12 -24 45 26 117 132 147 216 24 64 27 87 27 207 l0 136 -37 75
c-37 75 -130 184 -195 228 -92 63 -256 121 -340 121 -36 0 -43 -3 -47 -22z"/>
<path d="M3218 6504 c-23 -23 3 -209 44 -317 35 -91 104 -169 181 -205 41 -19
252 -63 383 -79 l41 -5 7 63 c3 35 9 76 12 90 5 24 2 28 -23 33 -16 4 -42 2
-57 -4 -40 -15 -53 -12 -33 8 13 12 34 17 75 17 59 0 72 7 72 38 0 23 -72 56
-121 57 -28 0 -50 -10 -90 -40 -129 -97 -284 -62 -392 88 -37 51 -38 49 75 87
164 54 252 44 332 -36 36 -36 71 -58 124 -79 40 -17 80 -30 87 -30 8 0 22 14
31 32 l17 32 -34 29 c-57 48 -74 54 -509 184 -119 36 -209 51 -222 37z"/>
<path d="M6520 6496 c-25 -7 -98 -30 -164 -50 -65 -20 -175 -48 -244 -62 -136
-27 -167 -38 -230 -78 -48 -30 -47 -33 10 -99 l33 -39 52 26 c28 14 58 26 67
26 9 0 40 24 69 54 97 100 201 102 334 6 31 -22 63 -40 72 -40 26 -1 -64 -76
-132 -110 -97 -49 -203 -35 -266 34 -31 33 -77 34 -138 5 -44 -21 -47 -26 -37
-53 5 -12 21 -16 69 -16 49 0 68 -4 86 -21 21 -18 21 -20 4 -14 -11 4 -44 10
-72 13 -40 3 -53 1 -54 -9 -2 -16 -3 -10 25 -109 l22 -75 42 -3 c109 -8 351
88 436 173 75 75 129 240 124 376 l-3 74 -30 2 c-16 1 -50 -4 -75 -11z"/>
<path d="M2724 6383 c-80 -87 -123 -229 -124 -409 0 -114 13 -182 49 -259 63
-135 131 -169 341 -170 96 0 137 4 177 18 79 28 155 111 127 139 -3 3 -26 -1
-52 -9 -31 -9 -75 -13 -130 -11 -71 4 -84 2 -100 -15 -81 -89 -200 -44 -279
106 l-14 29 103 -4 c83 -2 111 -7 143 -25 112 -61 126 -66 192 -60 35 2 74 12
88 21 l26 17 -23 32 c-13 18 -50 58 -82 90 l-60 59 -17 -34 c-25 -49 -53 -70
-102 -75 -68 -8 -110 11 -168 75 -47 53 -120 185 -134 243 l-6 25 68 -3 c112
-6 195 -23 240 -49 38 -22 105 -95 116 -127 2 -7 7 -10 10 -7 3 3 -7 34 -21
69 -20 47 -37 70 -67 90 -22 15 -45 37 -51 49 -16 32 -18 33 -52 21 -27 -9
-39 -7 -76 11 -62 29 -80 61 -81 137 0 35 -1 63 -3 63 -2 0 -19 -17 -38 -37z"/>
<path d="M7070 6356 c0 -57 -12 -88 -46 -120 -35 -31 -72 -40 -118 -28 -31 9
-35 8 -40 -12 -4 -11 -26 -37 -51 -56 -57 -44 -62 -72 -7 -40 25 15 76 28 162
40 69 10 134 22 144 26 15 6 18 4 14 -7 -96 -248 -191 -361 -303 -361 -49 0
-87 19 -121 60 l-20 25 -77 -77 c-42 -42 -77 -78 -77 -80 0 -13 61 -39 111
-47 79 -13 121 -1 215 61 86 56 126 67 224 62 58 -4 67 -15 45 -55 -43 -81
-107 -127 -176 -127 -17 0 -53 12 -79 27 -45 26 -51 26 -97 15 -26 -6 -67 -15
-90 -18 -24 -4 -43 -10 -43 -14 0 -13 89 -59 147 -76 32 -9 91 -15 147 -15
112 0 167 21 221 84 134 156 123 533 -20 730 -45 61 -65 62 -65 3z"/>
<path d="M5480 6201 c-87 -28 -151 -89 -250 -236 -65 -97 -82 -136 -47 -107 8
7 61 27 118 46 143 47 184 66 254 118 39 29 69 61 85 91 l25 47 -22 22 c-17
16 -36 22 -80 24 -32 2 -69 0 -83 -5z"/>
<path d="M4243 6182 c-24 -2 -43 -6 -43 -9 0 -3 15 -34 34 -67 39 -70 74 -105
131 -134 51 -26 86 -58 121 -113 33 -53 64 -89 76 -89 14 0 9 193 -6 244 -39
127 -142 183 -313 168z"/>
<path d="M4940 6031 c-41 -42 -94 -93 -118 -112 -83 -66 -188 -227 -207 -314
-4 -16 16 15 44 70 61 121 104 174 228 285 92 81 156 151 137 149 -5 0 -43
-35 -84 -78z"/>
<path d="M4046 6030 c-35 -88 -12 -182 54 -226 38 -25 140 -68 140 -59 0 3
-17 31 -39 63 -45 67 -81 136 -106 210 -11 28 -22 52 -26 52 -4 0 -14 -18 -23
-40z"/>
<path d="M5760 6019 c-25 -59 -92 -154 -143 -201 -47 -44 -49 -48 -26 -48 14
0 50 7 80 16 115 34 159 77 159 156 0 42 -30 108 -49 108 -5 0 -14 -14 -21
-31z"/>
<path d="M5100 5761 c-36 -22 -78 -54 -95 -72 l-30 -33 36 31 c20 17 64 47 98
68 53 33 69 45 59 45 -2 0 -32 -18 -68 -39z"/>
<path d="M4749 5753 c-13 -16 -12 -17 4 -4 16 13 21 21 13 21 -2 0 -10 -8 -17
-17z"/>
<path d="M4687 5647 c-14 -30 -47 -121 -72 -203 -26 -82 -65 -187 -86 -234
-37 -84 -59 -156 -58 -195 0 -11 10 14 23 55 48 161 124 260 249 325 31 16 54
31 52 33 -7 7 -99 -39 -146 -73 -27 -19 -49 -33 -49 -30 0 31 77 279 102 328
11 22 17 41 15 43 -2 3 -16 -20 -30 -49z"/>
<path d="M4765 5617 c-29 -66 -44 -125 -24 -93 18 29 59 139 54 144 -3 3 -16
-20 -30 -51z"/>
<path d="M5676 5480 c-39 -10 -111 -24 -160 -31 -91 -12 -181 -46 -210 -78 -7
-9 -17 -27 -21 -40 l-7 -24 153 6 c165 6 207 14 260 50 34 22 92 114 83 129
-7 11 -17 9 -98 -12z"/>
<path d="M2245 5357 c-16 -8 -38 -23 -48 -34 -17 -20 -16 -21 43 -57 34 -20
68 -36 76 -36 8 0 38 17 67 39 29 21 63 44 76 51 l25 13 -30 15 c-40 21 -170
26 -209 9z"/>
<path d="M7404 5354 c-10 -8 -14 -17 -9 -20 6 -2 38 -22 70 -44 33 -22 68 -40
78 -40 20 0 93 35 101 49 4 5 -22 23 -56 40 -70 35 -150 42 -184 15z"/>
<path d="M4679 5261 c-27 -26 -49 -54 -49 -60 0 -7 11 1 25 17 14 17 41 44 60
61 20 17 30 31 24 31 -7 0 -34 -22 -60 -49z"/>
<path d="M4714 5148 c-103 -90 -180 -191 -249 -329 -49 -96 -71 -173 -79 -269
-6 -75 1 -57 33 85 39 169 157 365 298 494 74 69 72 84 -3 19z"/>
<path d="M4820 5092 c-78 -58 -181 -166 -231 -242 -76 -115 -140 -273 -138
-344 0 -22 6 -9 19 41 56 215 182 397 385 560 61 49 38 39 -35 -15z"/>
<path d="M4825 4954 c-71 -57 -83 -69 -135 -135 -43 -54 -92 -144 -104 -189
-4 -14 6 2 22 35 50 103 142 211 262 308 18 15 29 27 22 27 -6 0 -36 -21 -67
-46z"/>
<path d="M2427 4906 c-20 -27 -42 -67 -48 -89 -12 -44 -4 -106 16 -133 12 -18
15 -18 71 0 138 42 166 57 127 71 -49 16 -99 82 -117 152 l-12 47 -37 -48z"/>
<path d="M7390 4918 c-1 -53 -34 -114 -80 -144 -22 -15 -39 -32 -37 -38 6 -17
92 -46 156 -53 66 -6 91 9 91 56 0 60 -56 163 -107 196 -22 15 -23 15 -23 -17z"/>
<path d="M4770 4709 c-35 -53 -81 -168 -79 -197 0 -9 9 6 19 35 10 28 37 88
59 132 22 45 39 81 37 81 -2 0 -19 -23 -36 -51z"/>
<path d="M4551 4520 c-6 -28 -11 -70 -10 -93 1 -30 5 -17 15 47 15 99 12 127
-5 46z"/>
<path d="M4681 4474 c0 -11 3 -14 6 -6 3 7 2 16 -1 19 -3 4 -6 -2 -5 -13z"/>
<path d="M4869 3518 c-16 -30 -87 -116 -174 -208 -65 -69 -66 -71 -19 -33 62
51 120 113 160 173 36 53 57 90 50 90 -3 0 -11 -10 -17 -22z"/>
<path d="M4631 3420 c-36 -33 -63 -62 -60 -64 3 -3 34 24 69 59 36 36 62 65
60 65 -3 -1 -34 -28 -69 -60z"/>
<path d="M6000 3304 c0 -24 64 -120 88 -132 9 -5 40 -15 67 -21 28 -7 106 -37
174 -68 123 -55 124 -56 190 -48 143 17 183 3 247 -90 52 -77 70 -79 144 -17
33 28 76 56 95 63 19 7 35 16 35 20 0 27 -77 81 -182 128 -159 71 -210 80
-311 52 -145 -40 -224 -26 -377 65 -104 62 -170 80 -170 48z"/>
<path d="M3715 3250 c-33 -10 -90 -32 -127 -48 -37 -17 -94 -36 -126 -42 -52
-11 -69 -9 -148 10 -125 32 -172 29 -263 -16 -70 -35 -181 -127 -181 -151 0
-19 49 -44 118 -59 37 -8 110 -29 162 -45 128 -40 139 -39 194 18 25 25 43 50
39 56 -9 15 -70 37 -104 37 -18 0 -56 -7 -85 -16 -31 -10 -59 -14 -70 -9 -15
6 -9 11 31 22 28 8 63 19 79 25 l28 11 -28 15 c-19 10 -43 13 -78 8 -48 -5
-49 -5 -27 11 41 28 101 28 172 -2 35 -15 76 -32 91 -38 23 -9 38 -5 115 30
48 23 122 49 163 58 93 21 127 33 165 58 39 26 85 69 85 79 0 15 -144 7 -205
-12z"/>
<path d="M4165 3261 c-120 -31 -255 -159 -255 -242 0 -76 81 -129 174 -113 91
15 179 88 249 205 64 109 44 152 -71 156 -37 1 -80 -2 -97 -6z"/>
<path d="M5530 3246 c0 -30 91 -135 157 -182 37 -26 93 -74 125 -107 l56 -60
71 11 c38 7 84 12 100 12 26 0 31 4 31 23 -1 62 -74 162 -158 216 -62 40 -116
58 -235 82 -117 23 -147 24 -147 5z"/>
<path d="M5310 3222 c0 -34 17 -60 51 -78 50 -26 50 -12 -1 46 -43 47 -49 52
-50 32z"/>
<path d="M7002 3153 c-23 -4 -22 -6 15 -38 21 -18 47 -49 58 -69 20 -37 52
-47 84 -27 31 20 -32 108 -92 130 -16 6 -31 10 -35 10 -4 -1 -18 -4 -30 -6z"/>
<path d="M4886 3090 c-26 -31 -31 -51 -27 -100 4 -46 19 -44 78 13 54 52 57
57 48 84 -16 43 -64 44 -99 3z"/>
<path d="M2771 3069 c-37 -23 -33 -35 16 -45 28 -5 33 -3 47 24 9 17 16 33 16
37 0 12 -48 3 -79 -16z"/>
<path d="M4517 3035 c-71 -27 -150 -95 -170 -147 -5 -15 -1 -18 27 -18 25 0
48 11 83 38 63 50 125 120 118 132 -8 12 -11 12 -58 -5z"/>
<path d="M3671 3019 c-129 -17 -218 -85 -229 -174 -6 -59 4 -59 132 7 102 52
178 78 229 78 30 0 36 24 16 63 -21 40 -30 41 -148 26z"/>
<path d="M6165 2993 c3 -21 14 -51 24 -68 16 -29 21 -30 102 -35 118 -8 160
-35 210 -134 23 -48 23 -4 0 74 -27 86 -47 102 -199 158 -142 53 -146 53 -137
5z"/>
<path d="M6547 2968 c-16 -12 -15 -15 8 -40 32 -35 70 -54 120 -63 22 -4 48
-9 58 -12 34 -9 17 25 -39 76 -46 42 -62 51 -93 51 -20 0 -45 -6 -54 -12z"/>
<path d="M4670 2916 c-63 -46 -129 -114 -174 -179 -46 -66 -57 -127 -32 -175
19 -37 30 -40 49 -11 8 11 63 72 123 135 147 157 140 145 120 210 -9 30 -22
54 -29 54 -7 0 -32 -15 -57 -34z"/>
<path d="M5242 2894 c-27 -19 -28 -36 -2 -88 12 -26 36 -51 64 -69 24 -15 69
-53 100 -84 31 -31 58 -55 60 -52 57 63 86 104 86 121 0 56 -66 138 -138 169
-53 23 -139 25 -170 3z"/>
<path d="M5081 2821 c-8 -15 -12 -49 -9 -95 5 -97 33 -148 122 -226 39 -35 83
-82 98 -105 28 -44 61 -140 73 -212 8 -52 18 -60 50 -39 36 24 49 55 47 115
-4 148 -68 261 -197 346 -76 51 -130 116 -153 183 -18 55 -19 56 -31 33z"/>
<path d="M6590 2779 c0 -50 13 -87 34 -101 19 -13 66 -9 102 8 36 17 80 77 69
94 -3 5 -32 10 -63 10 -35 0 -74 8 -99 20 l-43 19 0 -50z"/>
<path d="M4882 2776 c-25 -27 -43 -58 -48 -81 -7 -39 0 -183 10 -193 15 -15
92 126 107 197 12 59 5 121 -15 121 -7 0 -32 -20 -54 -44z"/>
<path d="M3760 2784 c-156 -34 -206 -69 -256 -178 -53 -116 -31 -264 47 -310
47 -28 95 -16 192 45 l84 53 12 88 c7 48 12 91 12 95 0 5 -19 9 -42 11 -34 3
-41 0 -46 -17 -3 -12 -10 -21 -15 -21 -5 0 -6 9 -3 20 15 46 -58 -3 -78 -52
-4 -10 -8 -10 -16 2 -9 12 1 27 49 73 33 33 60 60 60 62 0 2 -20 7 -45 11 -77
11 -117 -16 -144 -98 -12 -35 -8 -67 14 -120 13 -32 -14 -19 -31 14 -39 76 7
181 93 214 44 17 49 17 112 0 98 -28 125 -30 157 -12 40 22 129 104 122 112
-26 25 -177 30 -278 8z"/>
<path d="M5937 2763 c-11 -17 60 -90 103 -107 23 -9 81 -20 130 -25 110 -12
140 -27 213 -104 56 -60 57 -61 73 -42 49 60 49 128 0 174 l-23 22 -8 -33 -7
-33 -12 50 c-16 67 -20 72 -64 85 -51 15 -397 26 -405 13z"/>
<path d="M4207 2709 c-84 -20 -166 -85 -217 -174 -28 -50 -38 -151 -18 -179
21 -28 71 -12 122 37 129 128 226 260 226 308 0 15 -7 19 -37 18 -21 -1 -55
-5 -76 -10z"/>
<path d="M5752 2678 c-18 -18 -15 -163 4 -204 24 -51 190 -194 225 -194 13 0
49 86 49 118 0 37 -23 98 -47 124 -16 18 -17 18 -29 -9 l-12 -28 -1 40 c-1 57
-38 125 -81 147 -40 21 -90 24 -108 6z"/>
<path d="M3371 2654 c-12 -15 -21 -41 -21 -58 0 -17 -5 -38 -10 -46 -7 -11
-10 -2 -10 33 0 51 -9 58 -39 28 -49 -49 -73 -151 -53 -223 5 -20 29 -66 53
-101 l43 -64 54 29 c30 15 60 28 68 28 20 0 18 12 -13 75 -29 59 -38 66 -48
36 -3 -11 -12 -24 -19 -30 -7 -6 1 36 20 104 18 62 36 137 40 164 6 50 6 51
-19 51 -16 0 -34 -10 -46 -26z"/>
<path d="M4663 2546 c-67 -74 -111 -155 -121 -223 -9 -64 -4 -113 12 -113 30
0 178 126 202 172 13 24 13 36 -1 94 -8 36 -15 81 -15 100 0 19 -4 34 -9 34
-5 0 -36 -29 -68 -64z"/>
<path d="M5580 2553 c-17 -36 -21 -60 -18 -100 7 -76 22 -86 42 -27 17 50 22
174 7 174 -5 0 -19 -21 -31 -47z"/>
<path d="M4314 2494 c-14 -36 -19 -75 -19 -146 0 -93 1 -97 31 -135 31 -38
120 -101 129 -91 3 3 0 18 -6 34 -6 16 -12 77 -14 135 -3 112 -14 143 -78 223
l-24 30 -19 -50z"/>
<path d="M4951 2463 c-71 -83 -68 -103 39 -228 64 -74 65 -75 80 -55 42 61 90
146 88 157 -3 10 -155 173 -163 173 -1 0 -21 -21 -44 -47z"/>
<path d="M6105 2425 c-3 -22 -12 -69 -20 -105 -7 -36 -11 -68 -9 -72 6 -9 101
-21 113 -14 13 8 -14 108 -49 175 l-28 56 -7 -40z"/>
<path d="M4167 2382 c-8 -20 -18 -55 -21 -77 -10 -61 -29 -81 -22 -24 3 26 3
49 -1 52 -8 9 -89 -49 -97 -68 -21 -56 21 -106 134 -158 47 -21 110 -51 140
-65 30 -14 76 -46 102 -70 42 -39 48 -42 48 -23 0 25 -74 102 -142 148 -68 46
-98 110 -105 224 -3 50 -9 92 -13 94 -5 3 -15 -12 -23 -33z"/>
<path d="M5692 2356 c-12 -32 -10 -40 13 -86 14 -28 31 -76 37 -106 8 -39 15
-54 27 -54 15 0 121 65 121 75 0 2 -16 30 -35 62 -20 34 -57 76 -89 101 -30
23 -56 42 -58 42 -2 0 -10 -16 -16 -34z"/>
<path d="M6241 2348 c0 -13 8 -45 17 -72 19 -56 27 -60 139 -69 l62 -5 -22 32
c-53 78 -127 145 -127 115 0 -8 -7 -6 -18 4 -27 25 -52 22 -51 -5z"/>
<path d="M3788 2299 c-35 -26 -36 -45 -3 -53 36 -9 45 -1 45 40 0 39 -5 41
-42 13z"/>
<path d="M4720 2234 c-41 -36 -88 -72 -103 -80 -16 -8 -27 -21 -25 -29 2 -7
32 -48 68 -90 l65 -76 12 73 c6 40 12 74 12 75 1 1 21 25 46 53 25 28 45 56
45 63 0 11 -37 78 -42 76 -2 0 -37 -30 -78 -65z"/>
<path d="M5199 2248 c-7 -18 -33 -66 -57 -107 l-45 -74 22 -69 22 -68 29 20
c15 11 50 40 76 64 l49 43 -12 64 c-12 69 -47 159 -61 159 -5 0 -15 -15 -23
-32z"/>
<path d="M5869 2253 c5 -10 16 -26 23 -36 13 -18 15 -18 37 1 l24 19 -24 16
c-13 10 -34 17 -47 17 -19 0 -21 -3 -13 -17z"/>
<path d="M4823 2147 c-56 -57 -73 -99 -73 -180 0 -49 20 -107 45 -127 10 -9
26 9 71 82 78 126 84 153 49 223 -14 30 -30 55 -33 55 -4 0 -30 -24 -59 -53z"/>
<path d="M5620 2191 c0 -4 -18 -29 -40 -53 -48 -55 -61 -87 -51 -125 10 -37
35 -34 106 13 43 29 55 42 55 63 -1 38 -36 111 -55 111 -8 0 -15 -4 -15 -9z"/>
<path d="M3927 2085 c17 -117 137 -347 210 -404 23 -19 28 -20 35 -6 17 30 10
120 -18 222 -16 57 -31 103 -35 103 -3 0 -11 -10 -18 -22 -11 -22 -11 -22 -8
4 2 15 1 31 -2 36 -7 10 -94 62 -106 62 -7 0 1 -77 12 -109 5 -14 4 -14 -10
-1 -9 9 -28 47 -42 85 -19 54 -23 61 -18 30z"/>
<path d="M5416 1997 c-16 -12 -18 -22 -13 -62 9 -59 12 -63 37 -40 23 21 27
72 7 98 -11 15 -15 16 -31 4z"/>
<path d="M4210 1980 c0 -28 47 -97 109 -160 37 -39 71 -70 75 -70 3 0 6 16 6
36 0 29 -9 45 -50 88 -55 59 -140 123 -140 106z"/>
<path d="M4964 1905 c-92 -133 -100 -149 -89 -181 15 -40 30 -40 56 3 13 21
48 64 78 96 l55 58 -13 47 c-7 26 -16 50 -20 55 -4 4 -34 -31 -67 -78z"/>
<path d="M5693 1948 c-29 -18 -53 -37 -53 -43 0 -5 11 -41 24 -80 l24 -70 31
68 c24 51 31 80 29 113 l-3 44 -52 -32z"/>
<path d="M4536 1944 c-13 -35 -5 -164 14 -227 20 -64 74 -157 96 -164 16 -5
42 66 50 132 8 64 -12 129 -51 165 l-25 23 0 -34 c0 -19 -5 -41 -10 -49 -7
-11 -10 5 -10 51 0 52 -5 72 -21 93 -24 30 -34 33 -43 10z"/>
<path d="M5547 1862 c-10 -11 -18 -37 -18 -63 l-2 -44 -10 38 c-12 43 -14 43
-46 17 -48 -40 -58 -138 -18 -178 13 -12 24 -13 69 -3 29 7 63 14 75 17 55 11
70 138 24 202 -25 36 -50 41 -74 14z"/>
<path d="M5097 1763 c-22 -26 -37 -68 -37 -111 0 -20 -5 -44 -10 -52 -7 -11
-10 -4 -10 27 0 55 -13 61 -39 19 -33 -52 -25 -91 43 -214 l29 -52 39 71 c21
40 45 81 53 93 21 29 18 91 -8 165 -25 71 -35 80 -60 54z"/>
<path d="M4432 1730 c-31 -100 -23 -221 19 -252 36 -27 130 -36 148 -14 12 15
11 20 -11 44 -14 15 -38 47 -54 71 l-29 45 -5 -45 c-5 -42 -6 -42 -12 -14 -4
17 -10 55 -13 85 -4 30 -12 69 -19 85 l-13 30 -11 -35z"/>
<path d="M4776 1638 c-24 -74 -27 -95 -22 -132 8 -45 48 -121 69 -129 10 -4
18 16 31 70 l17 74 -33 61 c-35 62 -55 81 -62 56z"/>
</g>
</svg>
